<svg width="375" height="812" viewBox="0 0 375 812" fill="none" xmlns="http://www.w3.org/2000/svg">
<mask id="mask0" mask-type="alpha" maskUnits="userSpaceOnUse" x="0" y="0" width="375" height="812">
<rect width="375" height="812" rx="16" fill="#FBF6DD"/>
</mask>
<g mask="url(#mask0)">
<path fill-rule="evenodd" clip-rule="evenodd" d="M-206 786L-172.556 731.739C-139.611 677.478 -72.7225 568.957 -6.33333 514.696C60.0558 460.435 126.944 460.435 193.333 514.696C259.723 568.957 326.611 677.478 359.556 731.739L393 786H359.556C326.611 786 259.723 786 193.333 786C126.944 786 60.0558 786 -6.33333 786C-72.7225 786 -139.611 786 -172.556 786H-206Z" fill="#3C3CCC"/>
<path d="M101 490C108.832 494.087 149 512 171 567" stroke="#E9D453" stroke-width="2" stroke-linecap="square" stroke-dasharray="10 10"/>
<path fill-rule="evenodd" clip-rule="evenodd" d="M-40 846L-6.55583 791.739C26.3892 737.478 93.2775 628.957 159.667 574.696C226.056 520.435 292.944 520.435 359.333 574.696C425.723 628.957 492.611 737.478 525.556 791.739L559 846H525.556C492.611 846 425.723 846 359.333 846C292.944 846 226.056 846 159.667 846C93.2775 846 26.3892 846 -6.55583 846H-40Z" fill="#4B4BFF"/>
<path d="M228 538C229 541.5 233.9 539.4 243.5 541C253.1 542.6 249 550.167 253 550" stroke="#E9D453" stroke-width="2" stroke-dasharray="10 10"/>
<g filter="url(#filter0_d)">
<ellipse cx="94.6579" cy="486.632" rx="6.39474" ry="2.84211" fill="black"/>
</g>
<path d="M88.1251 469.069C86.6882 465.249 84.5681 461.581 84.1565 457.496C83.907 456.627 84.0051 454.308 84.1132 453.802C84.4225 452.354 84.9683 450 86.1754 448.786C87.9695 446.983 91.2513 445.015 94.1518 444.261C97.7775 443.506 101.805 444.483 104.721 446C107.042 447.207 111 450.501 111 453.335C111 455.152 110.948 457.064 110.203 458.701C109.556 460.121 109.38 460.854 107.885 464.04C106.479 466.888 105.754 468.397 104.621 470.469C102.853 472.923 101.623 475.834 99.9529 478.203C98.5026 480.466 97.0523 482.729 95.6504 485.762C95.1311 486.842 95.5489 487.004 94.877 485.746C94.3164 484.696 93.7424 483.783 93.2582 482.703C91.2855 478.306 89.8269 473.593 88.1251 469.069Z" fill="#17CF77"/>
<path d="M94.4172 450.314C96.3289 449.705 97.4999 448.707 103.375 452.027C105.316 453.979 105.316 456.747 105.316 457.644C105.316 459.499 104.437 460.607 103.251 462.104C101.3 464.564 95.8555 466.798 93.139 464.057C91.4811 462.384 88.9683 461.31 89.8764 454.895C90.7845 452.146 91.4539 451.257 94.4172 450.314Z" fill="#4B4BFF"/>
<path d="M271.475 527.321L271.531 548.31L259.193 548.303L259.187 545.867L269.088 545.836L269.032 526.562C269.782 526.848 270.576 527.103 271.475 527.321ZM287.551 525.183L287.613 548.31L275.275 548.303L275.269 545.867L285.171 545.836L285.115 526.233C285.952 525.897 286.758 525.531 287.551 525.183Z" fill="black"/>
<!-- <path d="M301.675 500.196C295.473 498.854 295.205 496.722 294.119 492.066C292.048 483.196 283.856 479.317 276.264 482.382C269.158 485.247 271.416 495.534 264.978 493.931C257.978 492.184 252.238 492.066 250.161 498.4C248.445 503.621 250.46 508.992 244.053 509.197C235.724 509.458 235.612 525.539 250.261 523.139C266.107 520.541 263.761 527.944 277.686 527.944C285.528 527.944 290.588 521.542 297.239 523.674C308.119 527.167 313.154 518.179 313.553 513.797C314.021 508.731 311.912 502.415 301.675 500.196Z" fill="white"/> -->
<path stroke="null" id="svg_12" fill="white" d="m254.11717,500.196c5.88981,-1.342 6.14432,-3.474 7.17566,-8.13c1.96675,-8.87 9.7464,-12.749 16.95624,-9.684c6.74831,2.865 4.60397,13.152 10.7179,11.549c6.64764,-1.747 12.09871,-1.865 14.07117,4.469c1.62962,5.221 -0.28395,10.592 5.80055,10.797c7.90975,0.261 8.01611,16.342 -5.89551,13.942c-15.04837,-2.598 -12.82046,4.805 -26.04452,4.805c-7.44726,0 -12.25256,-6.402 -18.56877,-4.27c-10.33234,3.493 -15.1139,-5.495 -15.49281,-9.877c-0.44444,-5.066 1.5584,-11.382 11.2801,-13.601z"/>
<path d="M274.038 522.421C278.202 522.421 279.978 517.971 280.333 515.54L277.946 515.173C277.946 515.185 277.728 516.565 277.03 517.851C276.214 519.364 275.154 520.047 273.783 519.959C272.923 519.902 272.281 519.604 271.826 519.053C270.766 517.768 270.978 515.514 270.978 515.495L268.579 515.223C268.566 515.356 268.242 518.522 269.975 520.623C270.86 521.7 272.088 522.301 273.621 522.402C273.764 522.421 273.901 522.421 274.038 522.421Z" fill="black"/>
</g>
<defs>
<filter id="filter0_d" x="85.2632" y="482.79" width="18.7895" height="11.6842" filterUnits="userSpaceOnUse" color-interpolation-filters="sRGB">
<feFlood flood-opacity="0" result="BackgroundImageFix"/>
<feColorMatrix in="SourceAlpha" type="matrix" values="0 0 0 0 0 0 0 0 0 0 0 0 0 0 0 0 0 0 127 0"/>
<feOffset dy="2"/>
<feGaussianBlur stdDeviation="1.5"/>
<feColorMatrix type="matrix" values="0 0 0 0 0 0 0 0 0 0 0 0 0 0 0 0 0 0 0.25 0"/>
<feBlend mode="normal" in2="BackgroundImageFix" result="effect1_dropShadow"/>
<feBlend mode="normal" in="SourceGraphic" in2="effect1_dropShadow" result="shape"/>
</filter>
</defs>
</svg>
