<svg width="78" height="68" viewBox="0 0 78 68" fill="none" xmlns="http://www.w3.org/2000/svg">
<path d="M34.4749 46.3207L34.5307 67.3095L22.1928 67.3033L22.1866 64.8669L32.0879 64.8359L32.0321 45.5624C32.7823 45.8483 33.5759 46.1031 34.4749 46.3207ZM50.5513 44.1826L50.6133 67.3095L38.2754 67.3033L38.2692 64.8669L48.1705 64.8359L48.1147 45.233C48.9517 44.8974 49.7577 44.5307 50.5513 44.1826Z" fill="black"/>
<path d="M64.6745 19.1964C58.4731 17.8538 58.2049 15.7217 57.1193 11.066C55.048 2.19591 46.8565 -1.68282 39.2639 1.38163C32.1579 4.24716 34.4163 14.5345 27.9779 12.9308C20.9779 11.1841 15.2382 11.066 13.1607 17.4C11.445 22.6214 13.4602 27.9919 7.05293 28.197C-1.27587 28.4581 -1.38818 44.5386 13.2605 42.1393C29.1071 39.5411 26.7613 46.9442 40.6863 46.9442C48.5285 46.9442 53.5882 40.5418 60.2387 42.6739C71.1192 46.1672 76.1539 37.179 76.5532 32.7968C77.0211 27.7308 74.9124 21.4155 64.6745 19.1964Z" fill="white"/>
<path d="M37.0385 41.4213C41.2019 41.4213 42.9782 36.9708 43.3335 34.5398L40.9464 34.1726C40.9464 34.1853 40.7282 35.5654 40.0302 36.8505C39.2137 38.3636 38.1541 39.0473 36.7829 38.9587C35.9228 38.9017 35.2808 38.6041 34.8259 38.0534C33.7663 36.7682 33.9782 34.5145 33.9782 34.4955L31.5786 34.2233C31.5661 34.3562 31.242 37.5216 32.9747 39.6234C33.8598 40.6996 35.0876 41.3011 36.6209 41.4023C36.7642 41.4213 36.9013 41.4213 37.0385 41.4213Z" fill="black"/>
</svg>
