<svg width="24" height="24" viewBox="0 0 24 24" fill="none" xmlns="http://www.w3.org/2000/svg">
<path d="M14.2856 2V6.44444C14.2856 6.73913 14.4061 7.02174 14.6204 7.23012C14.8347 7.43849 15.1254 7.55556 15.4285 7.55556H19.9999" stroke="#1F1FFF" stroke-width="1.5" stroke-linecap="round" stroke-linejoin="round"/>
<path d="M17.7143 22H6.28571C5.67951 22 5.09812 21.7659 4.66947 21.3491C4.24082 20.9324 4 20.3671 4 19.7778V4.22222C4 3.63285 4.24082 3.06762 4.66947 2.65087C5.09812 2.23413 5.67951 2 6.28571 2H14.2857L20 7.55556V19.7778C20 20.3671 19.7592 20.9324 19.3305 21.3491C18.9019 21.7659 18.3205 22 17.7143 22Z" stroke="#1F1FFF" stroke-width="1.5" stroke-linecap="round" stroke-linejoin="round"/>
<path d="M12 10.8889V17.5556" stroke="#1F1FFF" stroke-width="1.5" stroke-linecap="round" stroke-linejoin="round"/>
<path d="M8.57153 14.2222L12.0001 10.8889L15.4287 14.2222" stroke="#1F1FFF" stroke-width="1.5" stroke-linecap="round" stroke-linejoin="round"/>
</svg>
