<svg width="361" height="184" viewBox="0 0 361 184" fill="none" xmlns="http://www.w3.org/2000/svg">
<ellipse opacity="0.1" cx="285.5" cy="169" rx="52.5" ry="15" fill="#021215"/>
<path d="M295.807 172.383L293.394 168.077L310.76 158.377L283.835 112.004L288.047 109.543L317.527 160.222L295.807 172.383Z" fill="#1D1D1B"/>
<path d="M265.192 167.651L242.763 156.862L244.892 152.462L262.826 161.074L282.463 118.676L286.911 120.71L265.192 167.651Z" fill="#1D1D1B"/>
<path d="M279.482 129.323L276.265 127.761L278.015 124.638L281.233 126.2L279.482 129.323ZM276.88 127.572L279.293 128.755L280.618 126.436L278.205 125.253L276.88 127.572Z" fill="#1D1D1B"/>
<path d="M274.608 130.695L271.485 128.944L273.378 125.916L276.501 127.666L274.608 130.695ZM272.101 128.802L274.419 130.127L275.839 127.856L273.52 126.531L272.101 128.802Z" fill="#1D1D1B"/>
<path d="M269.734 131.878L266.706 130.032L268.741 127.099L271.769 128.944L269.734 131.878ZM267.274 129.89L269.545 131.263L271.059 129.039L268.788 127.666L267.274 129.89Z" fill="#1D1D1B"/>
<path d="M264.813 132.824L261.832 130.884L263.961 127.998L266.942 129.938L264.813 132.824ZM262.447 130.789L264.671 132.256L266.233 130.08L264.009 128.613L262.447 130.789Z" fill="#1D1D1B"/>
<path d="M259.892 133.676L256.958 131.641L259.135 128.802L262.069 130.837L259.892 133.676ZM257.574 131.547L259.798 133.061L261.454 130.932L259.23 129.417L257.574 131.547Z" fill="#1D1D1B"/>
<path d="M254.924 134.386L252.037 132.304L254.308 129.559L257.195 131.641L254.924 134.386ZM252.7 132.209L254.876 133.77L256.58 131.688L254.403 130.127L252.7 132.209Z" fill="#1D1D1B"/>
<path d="M249.955 134.953L247.116 132.777L249.435 130.08L252.274 132.256L249.955 134.953ZM247.779 132.729L249.908 134.338L251.659 132.304L249.529 130.695L247.779 132.729Z" fill="#1D1D1B"/>
<path d="M245.034 135.427L242.242 133.203L244.608 130.553L247.4 132.777L245.034 135.427ZM242.857 133.156L244.939 134.812L246.737 132.825L244.655 131.168L242.857 133.156Z" fill="#1D1D1B"/>
<path d="M240.065 135.758L237.321 133.487L239.734 130.884L242.479 133.156L240.065 135.758ZM237.936 133.439L239.971 135.143L241.816 133.203L239.781 131.499L237.936 133.439Z" fill="#1D1D1B"/>
<path d="M235.05 136.042L232.353 133.723L234.86 131.168L237.558 133.487L235.05 136.042ZM233.015 133.676L235.05 135.427L236.895 133.487L234.86 131.736L233.015 133.676Z" fill="#1D1D1B"/>
<path d="M230.081 136.184L227.431 133.771L229.986 131.263L232.636 133.676L230.081 136.184ZM228.094 133.771L230.081 135.569L231.974 133.676L229.986 131.878L228.094 133.771Z" fill="#1D1D1B"/>
<path d="M225.113 136.231L222.51 133.771L225.113 131.31L227.715 133.771L225.113 136.231ZM223.173 133.818L225.113 135.663L227.053 133.818L225.113 131.973L223.173 133.818Z" fill="#1D1D1B"/>
<path d="M220.144 136.231L217.589 133.723L220.191 131.31L222.747 133.818L220.144 136.231ZM218.251 133.771L220.191 135.663L222.179 133.865L220.239 131.973L218.251 133.771Z" fill="#1D1D1B"/>
<path d="M215.176 136.137L212.668 133.629L215.318 131.263L217.826 133.818L215.176 136.137ZM213.283 133.629L215.176 135.521L217.163 133.723L215.271 131.831L213.283 133.629Z" fill="#1D1D1B"/>
<path d="M210.207 135.9L207.747 133.345L210.444 131.026L212.904 133.582L210.207 135.9ZM208.362 133.392L210.207 135.332L212.242 133.582L210.396 131.642L208.362 133.392Z" fill="#1D1D1B"/>
<path d="M205.239 135.663L202.826 133.061L205.57 130.79L207.983 133.392L205.239 135.663ZM203.441 133.061L205.286 135.048L207.368 133.345L205.523 131.405L203.441 133.061Z" fill="#1D1D1B"/>
<path d="M200.27 135.285L197.904 132.635L200.696 130.411L203.062 133.061L200.27 135.285ZM198.519 132.682L200.318 134.67L202.4 132.966L200.601 130.979L198.519 132.682Z" fill="#1D1D1B"/>
<path d="M195.349 134.859L192.983 132.162L195.775 129.985L198.141 132.683L195.349 134.859ZM193.645 132.209L195.396 134.244L197.526 132.588L195.775 130.553L193.645 132.209Z" fill="#1D1D1B"/>
<path d="M190.381 134.339L188.062 131.642L190.901 129.512L193.22 132.209L190.381 134.339ZM188.724 131.689L190.475 133.724L192.605 132.115L190.854 130.08L188.724 131.689Z" fill="#1D1D1B"/>
<path d="M185.459 133.771L183.188 131.026L186.074 128.897L188.346 131.641L185.459 133.771ZM183.85 131.074L185.554 133.156L187.731 131.547L186.027 129.465L183.85 131.074Z" fill="#1D1D1B"/>
<path d="M180.538 133.108L178.314 130.316L181.201 128.234L183.425 131.026L180.538 133.108ZM178.93 130.411L180.586 132.493L182.762 130.932L181.106 128.85L178.93 130.411Z" fill="#1D1D1B"/>
<path d="M175.617 132.398L173.44 129.559L176.374 127.524L178.551 130.316L175.617 132.398ZM174.056 129.654L175.712 131.783L177.936 130.269L176.28 128.14L174.056 129.654Z" fill="#1D1D1B"/>
<path d="M170.743 131.594L168.614 128.755L171.595 126.768L173.724 129.607L170.743 131.594ZM169.182 128.85L170.79 130.979L173.014 129.465L171.406 127.335L169.182 128.85Z" fill="#1D1D1B"/>
<path d="M165.822 130.742L163.693 127.856L166.674 125.916L168.803 128.802L165.822 130.742ZM164.355 127.998L165.964 130.174L168.188 128.707L166.579 126.531L164.355 127.998Z" fill="#1D1D1B"/>
<path d="M160.948 129.843L158.866 126.957L161.895 125.064L163.977 127.95L160.948 129.843ZM159.529 127.051L161.09 129.228L163.362 127.808L161.8 125.632L159.529 127.051Z" fill="#1D1D1B"/>
<path d="M156.074 128.849L154.04 125.916L157.068 124.023L159.103 126.957L156.074 128.849ZM154.702 126.058L156.216 128.282L158.488 126.862L156.973 124.638L154.702 126.058Z" fill="#1D1D1B"/>
<path d="M151.248 127.809L149.26 124.875L152.336 123.029L154.323 125.963L151.248 127.809ZM149.875 125.017L151.39 127.241L153.708 125.868L152.194 123.644L149.875 125.017Z" fill="#1D1D1B"/>
<path d="M146.422 126.72L144.481 123.739L147.557 121.941L149.497 124.922L146.422 126.72ZM145.049 123.881L146.516 126.105L148.835 124.733L147.368 122.509L145.049 123.881Z" fill="#1D1D1B"/>
<path d="M141.595 125.537L139.655 122.556L142.731 120.805L144.671 123.786L141.595 125.537ZM140.27 122.698L141.737 124.969L144.055 123.644L142.589 121.373L140.27 122.698Z" fill="#1D1D1B"/>
<path d="M136.768 124.354L134.875 121.326L137.999 119.622L139.891 122.65L136.768 124.354ZM135.491 121.468L136.91 123.739L139.276 122.461L137.857 120.19L135.491 121.468Z" fill="#1D1D1B"/>
<path d="M131.989 123.077L130.144 120.048L133.267 118.345L135.112 121.373L131.989 123.077ZM130.711 120.19L132.131 122.461L134.497 121.184L133.077 118.913L130.711 120.19Z" fill="#1D1D1B"/>
<path d="M127.21 121.751L125.364 118.676L128.535 117.02L130.38 120.095L127.21 121.751ZM125.979 118.865L127.352 121.184L129.718 119.953L128.345 117.635L125.979 118.865Z" fill="#1D1D1B"/>
<path d="M122.43 120.379L120.632 117.304L123.803 115.695L125.601 118.771L122.43 120.379ZM121.247 117.493L122.572 119.812L124.938 118.581L123.613 116.263L121.247 117.493Z" fill="#1D1D1B"/>
<path d="M117.699 118.96L115.948 115.837L119.118 114.275L120.869 117.351L117.699 118.96ZM116.516 116.026L117.841 118.345L120.254 117.162L118.929 114.843L116.516 116.026Z" fill="#1D1D1B"/>
<path d="M112.967 117.446L111.263 114.323L114.481 112.761L116.184 115.884L112.967 117.446ZM111.831 114.559L113.109 116.925L115.522 115.742L114.244 113.376L111.831 114.559Z" fill="#1D1D1B"/>
<path d="M108.235 115.931L106.531 112.808L109.749 111.294L111.452 114.417L108.235 115.931ZM107.146 112.997L108.424 115.363L110.837 114.228L109.56 111.862L107.146 112.997Z" fill="#1D1D1B"/>
<path d="M103.55 114.37L101.894 111.199L105.112 109.732L106.768 112.903L103.55 114.37ZM102.462 111.436L103.692 113.802L106.153 112.666L104.922 110.3L102.462 111.436Z" fill="#1D1D1B"/>
<path d="M98.8657 112.761L97.2568 109.591L100.522 108.124L102.131 111.294L98.8657 112.761ZM97.8247 109.78L99.055 112.146L101.516 111.058L100.285 108.692L97.8247 109.78Z" fill="#1D1D1B"/>
<path d="M94.1811 111.058L92.5723 107.887L95.8373 106.468L97.4461 109.638L94.1811 111.058ZM93.1874 108.124L94.3704 110.537L96.831 109.449L95.648 107.036L93.1874 108.124Z" fill="#1D1D1B"/>
<path d="M89.544 109.354L87.9824 106.136L91.2474 104.764L92.809 107.982L89.544 109.354ZM88.5503 106.373L89.7332 108.786L92.1938 107.745L91.0108 105.332L88.5503 106.373Z" fill="#1D1D1B"/>
<path d="M84.9068 107.603L83.3926 104.385L86.7049 103.013L88.2191 106.231L84.9068 107.603ZM83.9604 104.622L85.0961 107.035L87.5566 105.994L86.421 103.581L83.9604 104.622Z" fill="#1D1D1B"/>
<path d="M80.2696 105.805L78.7554 102.588L82.0677 101.263L83.5819 104.48L80.2696 105.805ZM79.3705 102.824L80.5062 105.237L83.0141 104.244L81.8784 101.831L79.3705 102.824Z" fill="#1D1D1B"/>
<path d="M75.6793 103.96L74.2124 100.695L77.5247 99.417L78.9916 102.682L75.6793 103.96ZM74.7802 100.979L75.8686 103.439L78.3765 102.445L77.2881 99.9848L74.7802 100.979Z" fill="#1D1D1B"/>
<path d="M71.0894 102.067L69.6226 98.802L72.9349 97.5244L74.4018 100.789L71.0894 102.067ZM70.2377 99.0859L71.326 101.547L73.8339 100.6L72.7456 98.1396L70.2377 99.0859Z" fill="#1D1D1B"/>
<path d="M66.547 100.174L65.1274 96.909L68.4871 95.6787L69.9067 98.9437L66.547 100.174ZM65.6953 97.1456L66.7836 99.6062L69.2915 98.6598L68.2032 96.1992L65.6953 97.1456Z" fill="#1D1D1B"/>
<path d="M62.0041 98.1867L60.6318 94.9217L63.9915 93.6914L65.3637 96.9564L62.0041 98.1867ZM61.1997 95.1583L62.2407 97.6189L64.7486 96.7198L63.7076 94.2592L61.1997 95.1583Z" fill="#1D1D1B"/>
<path d="M57.4616 96.1994L56.0894 92.8871L59.449 91.7041L60.8213 95.0164L57.4616 96.1994ZM56.7045 93.171L57.7455 95.6316L60.2534 94.7325L59.2124 92.2719L56.7045 93.171Z" fill="#1D1D1B"/>
<path d="M52.9665 94.1648L51.6416 90.8525L55.0013 89.7168L56.3262 93.0291L52.9665 94.1648ZM52.2094 91.1364L53.2031 93.6443L55.7584 92.7925L54.7647 90.2846L52.2094 91.1364Z" fill="#1D1D1B"/>
<path d="M48.4709 92.0827L47.146 88.7704L50.5056 87.6348L51.8306 90.9471L48.4709 92.0827ZM47.7138 89.0543L48.7075 91.5622L51.2628 90.7105L50.269 88.2026L47.7138 89.0543Z" fill="#1D1D1B"/>
<path d="M43.9758 89.9534L42.6982 86.6411L46.1052 85.5527L47.3828 88.8651L43.9758 89.9534ZM43.2661 86.925L44.2124 89.4329L46.7677 88.6285L45.8213 86.1206L43.2661 86.925Z" fill="#1D1D1B"/>
<path d="M39.5276 87.824L38.25 84.5117L41.657 83.4233L42.9346 86.7357L39.5276 87.824ZM38.8178 84.7483L39.7642 87.2562L42.3194 86.4517L41.373 83.9438L38.8178 84.7483Z" fill="#1D1D1B"/>
<path d="M35.0799 85.6472L33.8496 82.2876L37.2566 81.2466L38.4869 84.6062L35.0799 85.6472ZM34.4174 82.5715L35.3638 85.0794L37.919 84.275L36.9727 81.7671L34.4174 82.5715Z" fill="#1D1D1B"/>
<path d="M30.6317 83.4231L29.4487 80.0635L32.8557 79.0225L34.0387 82.3821L30.6317 83.4231ZM30.0165 80.3474L30.9156 82.8553L33.4708 82.0982L32.5718 79.5903L30.0165 80.3474Z" fill="#1D1D1B"/>
<path d="M26.2313 81.1522L25.0483 77.7925L28.4553 76.7988L29.6383 80.1585L26.2313 81.1522ZM25.6162 78.0764L26.5152 80.6317L29.0705 79.8746L28.1714 77.3667L25.6162 78.0764Z" fill="#1D1D1B"/>
<path d="M21.8305 78.8807L20.6948 75.5211L24.1491 74.5747L25.2848 77.9344L21.8305 78.8807ZM21.2627 75.805L22.1144 78.3602L24.7169 77.6504L23.8652 75.0952L21.2627 75.805Z" fill="#1D1D1B"/>
<path d="M17.477 76.5619L16.3413 73.2022L19.7956 72.2559L20.9313 75.6155L17.477 76.5619ZM16.9091 73.4862L17.7609 76.0414L20.3634 75.3316L19.5117 72.7764L16.9091 73.4862Z" fill="#1D1D1B"/>
<path d="M13.124 74.2435L12.0356 70.8366L15.4899 69.9375L16.5783 73.3445L13.124 74.2435ZM12.5561 71.1205L13.4079 73.6757L16.0104 72.9659L15.1587 70.4107L12.5561 71.1205Z" fill="#1D1D1B"/>
<path d="M8.77046 71.83L7.68213 68.423L11.1364 67.5239L12.2247 70.9309L8.77046 71.83ZM8.24995 68.7542L9.05438 71.3094L11.6569 70.647L10.8525 68.0918L8.24995 68.7542Z" fill="#1D1D1B"/>
<path d="M4.46436 69.4169L3.42334 66.0099L6.87762 65.1582L7.91864 68.5652L4.46436 69.4169ZM3.94384 66.3412L4.74826 68.8964L7.35081 68.2339L6.54639 65.6787L3.94384 66.3412Z" fill="#1D1D1B"/>
<path d="M0.158203 67.0038L-0.882812 63.5969L2.57147 62.7451L3.61249 66.1521L0.158203 67.0038ZM-0.314987 63.9281L0.44212 66.4833L3.04466 65.8682L2.28756 63.313L-0.314987 63.9281Z" fill="#1D1D1B"/>
<path d="M241.722 77.6032C253.362 75.19 253.835 71.3098 255.87 62.8397C259.75 46.7513 275.129 39.7008 289.324 45.2371C302.668 50.4422 298.41 69.1331 310.476 66.1994C323.583 63.029 334.372 62.8397 338.252 74.3382C341.47 83.802 337.684 93.5497 349.703 93.9283C365.319 94.4015 365.508 123.597 338.063 119.244C308.347 114.512 312.747 127.951 286.627 127.951C271.911 127.951 262.447 116.31 249.955 120.19C229.561 126.531 220.097 110.206 219.34 102.256C218.583 93.0765 222.51 81.6253 241.722 77.6032Z" fill="#17CF77"/>
</svg>
