<svg width="306" height="323" viewBox="0 0 306 323" fill="none" xmlns="http://www.w3.org/2000/svg">
<path d="M195.635 105.999L176.096 105.736L176.148 101.891L191.781 102.101L191.661 60.034L195.51 60.0244L195.635 105.999Z" fill="#1D1D1B"/>
<path d="M170.652 106L151.113 105.77L151.156 101.925L166.793 102.107L166.673 65.4763L170.523 65.4619L170.652 106Z" fill="#1D1D1B"/>
<path d="M141.049 29.086C150.94 27.0148 151.368 23.7209 153.1 16.5434C156.398 2.85496 169.471 -3.12865 181.585 1.59879C192.922 6.02417 189.322 21.8942 199.584 19.4202C210.752 16.7256 219.9 16.5482 223.221 26.3195C225.957 34.3696 222.741 42.6642 232.964 42.9711C246.245 43.3738 246.427 68.1857 223.063 64.4795C197.784 60.4712 201.532 71.8871 179.315 71.8871C166.803 71.8871 158.74 62.0055 148.128 65.2993C130.758 70.6884 122.738 56.8273 122.095 50.067C121.351 42.2423 124.711 32.5045 141.049 29.086Z" fill="white"/>
<path d="M173.984 62.1943C173.778 62.1943 173.567 62.1895 173.351 62.1751C170.965 62.0169 169.05 61.1012 167.673 59.4518C164.975 56.2347 165.479 51.3874 165.503 51.1812L169.237 51.5935C169.137 52.5525 169.18 55.41 170.562 57.0497C171.268 57.8888 172.266 58.3395 173.6 58.4306C175.722 58.5696 177.382 57.5148 178.649 55.2038C179.734 53.2285 180.07 51.1237 180.07 51.1045L183.785 51.6655C183.228 55.3812 180.464 62.1943 173.984 62.1943Z" fill="#1D1D1B"/>
<path d="M0.734649 223.464C0.734649 223.464 -5.24956 171.12 16.9406 146.221C37.3993 123.265 52.0485 94.7231 81.7568 93.3741C111.465 92.0175 133.275 106.917 186.237 90.9048C196.869 87.6886 211.898 82.727 221.315 85.3488C235.44 89.2814 240.923 107.26 225.734 118.997C225.734 118.997 254.592 114.424 269.925 89.571C278.028 76.4394 290.163 69.382 302.337 77.3768C315.346 85.9204 289.525 120.522 289.525 120.522C289.525 120.522 242.411 177.979 161.943 183.017C70.5248 188.733 76.5397 223.631 76.5397 223.631L81.7567 422H0.559852L0.734649 223.464Z" fill="#262680"/>
<path d="M99.6868 158.675L99.6641 155.626C100.013 155.626 135.053 155.154 152.656 141.168L155.382 138.996C174.846 123.471 180.079 119.302 225.553 113.411L225.94 116.437C181.309 122.214 176.692 125.895 157.273 141.382L154.547 143.554C146.786 149.719 135.182 154.14 120.062 156.685C108.861 158.575 100.051 158.675 99.6868 158.675Z" fill="#1D1D1B"/>
</svg>
