<svg width="307" height="443" viewBox="0 0 307 443" fill="none" xmlns="http://www.w3.org/2000/svg">
<path d="M202.937 141.358L176.907 141.006L176.978 135.878L197.802 136.16L197.642 80.0602L202.77 80.0474L202.937 141.358Z" fill="#1D1D1B"/>
<path d="M169.656 141.358L143.627 141.051L143.684 135.923L164.516 136.166L164.356 87.317L169.484 87.2979L169.656 141.358Z" fill="#1D1D1B"/>
<path d="M130.219 38.7879C143.397 36.0258 143.966 31.6332 146.274 22.0617C150.667 3.80726 168.083 -4.17224 184.221 2.13208C199.324 8.03359 194.528 29.1972 208.198 25.898C223.077 22.3046 235.263 22.068 239.688 35.0987C243.332 45.8339 239.048 56.8952 252.667 57.3045C270.359 57.8415 270.602 90.9296 239.477 85.9872C205.801 80.6419 210.794 95.8657 181.197 95.8657C164.528 95.8657 153.787 82.688 139.65 87.0805C116.511 94.2672 105.827 75.7826 104.97 66.7673C103.979 56.3326 108.454 43.3467 130.219 38.7879Z" fill="white"/>
<path d="M174.1 82.9374C173.825 82.9374 173.544 82.931 173.256 82.9118C170.079 82.7008 167.528 81.4796 165.693 79.2801C162.099 74.9898 162.771 68.5257 162.803 68.2507L167.777 68.8006C167.643 70.0794 167.7 73.8901 169.542 76.0768C170.482 77.1957 171.811 77.7967 173.589 77.9182C176.415 78.1036 178.627 76.697 180.315 73.6152C181.76 70.9809 182.208 68.174 182.208 68.1484L187.157 68.8965C186.415 73.8517 182.732 82.9374 174.1 82.9374Z" fill="#1D1D1B"/>
<path d="M0.736672 244.128C0.736672 244.128 -5.26401 191.827 16.9873 166.949C37.5023 144.012 52.1918 115.494 81.982 114.146C111.772 112.79 133.643 127.678 186.75 111.679C197.411 108.465 212.481 103.508 221.924 106.127C236.088 110.057 241.586 128.021 226.356 139.748C226.356 139.748 255.293 135.179 270.668 110.346C278.794 97.2252 290.963 90.1736 303.169 98.1619C316.214 106.698 290.323 141.271 290.323 141.271C290.323 141.271 243.079 198.681 162.389 203.715C70.7191 209.426 76.7504 244.295 76.7504 244.295L81.9819 442.5H0.561394L0.736672 244.128Z" fill="#262680"/>
<path d="M99.9613 182.392L99.9385 179.346C100.289 179.346 135.425 178.874 153.077 164.9L155.81 162.73C175.328 147.218 180.575 143.053 226.174 137.166L226.562 140.189C181.808 145.962 177.178 149.64 157.706 165.114L154.973 167.284C147.19 173.445 135.554 177.861 120.393 180.405C109.16 182.293 100.327 182.392 99.9613 182.392Z" fill="#1D1D1B"/>
</svg>
