<svg width="68" height="10" viewBox="0 0 68 10" fill="none" xmlns="http://www.w3.org/2000/svg">
<path d="M1.694 9H0.074V0.323999H1.694V9ZM4.73544 0.323999C4.80744 0.323999 4.86744 0.327999 4.91544 0.335999C4.96344 0.339999 5.00544 0.352 5.04144 0.372C5.08144 0.388 5.11944 0.414 5.15544 0.45C5.19144 0.482 5.23144 0.526 5.27544 0.581999L9.82944 6.384C9.81344 6.244 9.80144 6.108 9.79344 5.976C9.78944 5.84 9.78744 5.714 9.78744 5.598V0.323999H11.2094V9H10.3754C10.2474 9 10.1414 8.98 10.0574 8.94C9.97344 8.9 9.89144 8.828 9.81144 8.724L5.27544 2.946C5.28744 3.074 5.29544 3.202 5.29944 3.33C5.30744 3.454 5.31144 3.568 5.31144 3.672V9H3.88944V0.323999H4.73544ZM17.5557 5.4C17.6237 5.528 17.6857 5.662 17.7417 5.802C17.8017 5.938 17.8597 6.076 17.9157 6.216C17.9717 6.072 18.0297 5.93 18.0897 5.79C18.1497 5.65 18.2137 5.516 18.2817 5.388L20.8498 0.581999C20.8817 0.521999 20.9137 0.474 20.9457 0.438C20.9818 0.401999 21.0198 0.375999 21.0598 0.36C21.1038 0.343999 21.1518 0.333999 21.2037 0.33C21.2557 0.325999 21.3177 0.323999 21.3897 0.323999H22.6078V9H21.1858V3.396C21.1858 3.292 21.1878 3.178 21.1917 3.054C21.1997 2.93 21.2097 2.804 21.2217 2.676L18.5997 7.596C18.5397 7.708 18.4617 7.796 18.3658 7.86C18.2697 7.92 18.1577 7.95 18.0297 7.95H17.8077C17.6797 7.95 17.5677 7.92 17.4717 7.86C17.3757 7.796 17.2977 7.708 17.2377 7.596L14.5797 2.658C14.5957 2.79 14.6057 2.92 14.6097 3.048C14.6177 3.172 14.6217 3.288 14.6217 3.396V9H13.1997V0.323999H14.4177C14.4897 0.323999 14.5517 0.325999 14.6037 0.33C14.6557 0.333999 14.7017 0.343999 14.7417 0.36C14.7857 0.375999 14.8257 0.401999 14.8617 0.438C14.8977 0.474 14.9317 0.521999 14.9637 0.581999L17.5557 5.4ZM28.088 7.698C28.4 7.698 28.678 7.646 28.922 7.542C29.17 7.438 29.378 7.292 29.546 7.104C29.718 6.916 29.848 6.688 29.936 6.42C30.028 6.152 30.074 5.852 30.074 5.52V0.323999H31.688V5.52C31.688 6.036 31.604 6.514 31.436 6.954C31.272 7.39 31.034 7.768 30.722 8.088C30.41 8.404 30.032 8.652 29.588 8.832C29.144 9.008 28.644 9.096 28.088 9.096C27.532 9.096 27.032 9.008 26.588 8.832C26.144 8.652 25.766 8.404 25.454 8.088C25.146 7.768 24.908 7.39 24.74 6.954C24.576 6.514 24.494 6.036 24.494 5.52V0.323999H26.108V5.514C26.108 5.846 26.152 6.146 26.24 6.414C26.332 6.682 26.462 6.912 26.63 7.104C26.798 7.292 27.004 7.438 27.248 7.542C27.496 7.646 27.776 7.698 28.088 7.698ZM39.0385 0.323999V1.608H35.1925V4.014H38.2225V5.256H35.1925V7.71H39.0385V9H33.5665V0.323999H39.0385ZM40.6737 9V0.323999H43.6677C44.2357 0.323999 44.7197 0.378 45.1197 0.486C45.5237 0.594 45.8537 0.748 46.1097 0.948C46.3697 1.148 46.5597 1.39 46.6797 1.674C46.7997 1.958 46.8597 2.278 46.8597 2.634C46.8597 2.838 46.8297 3.034 46.7697 3.222C46.7097 3.406 46.6157 3.58 46.4877 3.744C46.3637 3.904 46.2037 4.05 46.0077 4.182C45.8157 4.314 45.5857 4.426 45.3177 4.518C46.5097 4.786 47.1057 5.43 47.1057 6.45C47.1057 6.818 47.0357 7.158 46.8957 7.47C46.7557 7.782 46.5517 8.052 46.2837 8.28C46.0157 8.504 45.6857 8.68 45.2937 8.808C44.9017 8.936 44.4537 9 43.9497 9H40.6737ZM42.2877 5.196V7.74H43.9257C44.2257 7.74 44.4757 7.704 44.6757 7.632C44.8797 7.56 45.0417 7.464 45.1617 7.344C45.2857 7.224 45.3737 7.084 45.4257 6.924C45.4817 6.764 45.5097 6.594 45.5097 6.414C45.5097 6.226 45.4797 6.058 45.4197 5.91C45.3597 5.758 45.2657 5.63 45.1377 5.526C45.0097 5.418 44.8457 5.336 44.6457 5.28C44.4457 5.224 44.2037 5.196 43.9197 5.196H42.2877ZM42.2877 4.08H43.5777C44.1257 4.08 44.5417 3.98 44.8257 3.78C45.1097 3.58 45.2517 3.262 45.2517 2.826C45.2517 2.374 45.1237 2.052 44.8677 1.86C44.6117 1.668 44.2117 1.572 43.6677 1.572H42.2877V4.08ZM50.3441 7.668H53.8181V9H48.7301V0.323999H50.3441V7.668ZM60.6413 0.323999V1.608H56.7953V4.014H59.8253V5.256H56.7953V7.71H60.6413V9H55.1693V0.323999H60.6413ZM66.9265 1.902C66.8825 1.99 66.8305 2.052 66.7705 2.088C66.7145 2.124 66.6465 2.142 66.5665 2.142C66.4865 2.142 66.3965 2.112 66.2965 2.052C66.1965 1.988 66.0785 1.918 65.9425 1.842C65.8065 1.766 65.6465 1.698 65.4625 1.638C65.2825 1.574 65.0685 1.542 64.8205 1.542C64.5965 1.542 64.4005 1.57 64.2325 1.626C64.0685 1.678 63.9285 1.752 63.8125 1.848C63.7005 1.944 63.6165 2.06 63.5605 2.196C63.5045 2.328 63.4765 2.474 63.4765 2.634C63.4765 2.838 63.5325 3.008 63.6445 3.144C63.7605 3.28 63.9125 3.396 64.1005 3.492C64.2885 3.588 64.5025 3.674 64.7425 3.75C64.9825 3.826 65.2265 3.908 65.4745 3.996C65.7265 4.08 65.9725 4.18 66.2125 4.296C66.4525 4.408 66.6665 4.552 66.8545 4.728C67.0425 4.9 67.1925 5.112 67.3045 5.364C67.4205 5.616 67.4785 5.922 67.4785 6.282C67.4785 6.674 67.4105 7.042 67.2745 7.386C67.1425 7.726 66.9465 8.024 66.6865 8.28C66.4305 8.532 66.1165 8.732 65.7445 8.88C65.3725 9.024 64.9465 9.096 64.4665 9.096C64.1905 9.096 63.9185 9.068 63.6505 9.012C63.3825 8.96 63.1245 8.884 62.8765 8.784C62.6325 8.684 62.4025 8.564 62.1865 8.424C61.9745 8.284 61.7845 8.128 61.6165 7.956L62.0845 7.182C62.1285 7.126 62.1805 7.08 62.2405 7.044C62.3045 7.004 62.3745 6.984 62.4505 6.984C62.5505 6.984 62.6585 7.026 62.7745 7.11C62.8905 7.19 63.0265 7.28 63.1825 7.38C63.3425 7.48 63.5285 7.572 63.7405 7.656C63.9565 7.736 64.2145 7.776 64.5145 7.776C64.9745 7.776 65.3305 7.668 65.5825 7.452C65.8345 7.232 65.9605 6.918 65.9605 6.51C65.9605 6.282 65.9025 6.096 65.7865 5.952C65.6745 5.808 65.5245 5.688 65.3365 5.592C65.1485 5.492 64.9345 5.408 64.6945 5.34C64.4545 5.272 64.2105 5.198 63.9625 5.118C63.7145 5.038 63.4705 4.942 63.2305 4.83C62.9905 4.718 62.7765 4.572 62.5885 4.392C62.4005 4.212 62.2485 3.988 62.1325 3.72C62.0205 3.448 61.9645 3.114 61.9645 2.718C61.9645 2.402 62.0265 2.094 62.1505 1.794C62.2785 1.494 62.4625 1.228 62.7025 0.995999C62.9465 0.763999 63.2445 0.578 63.5965 0.438C63.9485 0.298 64.3505 0.228 64.8025 0.228C65.3145 0.228 65.7865 0.308 66.2185 0.468C66.6505 0.628 67.0185 0.852 67.3225 1.14L66.9265 1.902Z" fill="#021215"/>
</svg>
