<svg width="39" height="16" viewBox="0 0 39 16" fill="none" xmlns="http://www.w3.org/2000/svg">
<path d="M35.5061 0.202289V14.3595L29.8757 0.202289H23.9814V15.777H27.4768V1.61979L33.1058 15.777H39V0.202289H35.5061ZM13.7384 13.4884C11.2788 13.4884 9.53182 11.2204 9.53182 8C9.53182 4.77962 11.2802 2.51163 13.7384 2.51163C16.1965 2.51163 17.945 4.77962 17.945 8C17.945 11.2204 16.198 13.4884 13.7384 13.4884ZM13.7384 16C18.0472 16 21.4418 12.375 21.4418 8C21.4418 3.60428 18.0472 0 13.7384 0C9.42958 0 6.03647 3.60428 6.03647 8C6.03647 12.375 9.42958 16 13.7384 16ZM0 15.777H3.49535V0.202289H0V15.777Z" fill="white"/>
</svg>
