<svg width="16" height="16" viewBox="0 0 16 16" fill="none" xmlns="http://www.w3.org/2000/svg">
<path d="M12.6667 2H5.99997C5.26358 2 4.66663 2.59696 4.66663 3.33334V10C4.66663 10.7364 5.26358 11.3334 5.99997 11.3334H12.6667C13.4031 11.3334 14 10.7364 14 10V3.33334C14 2.59696 13.4031 2 12.6667 2Z" stroke="#021215" stroke-linecap="round" stroke-linejoin="round"/>
<path d="M11.3334 11.3333V12.6667C11.3334 13.0203 11.1929 13.3594 10.9429 13.6095C10.6928 13.8595 10.3537 14 10 14H3.33334C2.97972 14 2.64058 13.8595 2.39053 13.6095C2.14048 13.3594 2 13.0203 2 12.6667V5.99997C2 5.64634 2.14048 5.3072 2.39053 5.05715C2.64058 4.8071 2.97972 4.66663 3.33334 4.66663H4.66668" stroke="#021215" stroke-linecap="round" stroke-linejoin="round"/>
</svg>
