<svg width="16" height="10" viewBox="0 0 16 10" stroke="none" fill="none" xmlns="http://www.w3.org/2000/svg">
<path stroke="none" d="M8.41902 3.08829C7.33433 3.08829 6.55235 3.8955 6.21181 5.24505C5.95956 3.73153 5.11451 3.08829 4.06767 3.08829C3.05866 3.08829 2.32713 3.76937 1.94875 4.94234V3.22703H0.939738V10H1.94875V6.93514C1.94875 5.08108 2.64244 3.78198 3.75235 3.78198C4.81181 3.78198 5.27848 4.66486 5.27848 6.35495V10H6.28749V6.93514C6.28749 5.08108 6.99379 3.78198 8.1037 3.78198C9.15055 3.78198 9.62983 4.66486 9.62983 6.35495V10H10.6388V6.22883C10.6388 4.00901 9.68028 3.08829 8.41902 3.08829ZM12.387 4.91712L13.8626 3.68108C14.7581 2.94955 15.5779 2.39459 15.5779 1.47387C15.5779 0.717117 14.8843 0.174774 13.9761 0.174774C12.8536 0.174774 12.1095 1.10811 11.8951 2.19279L12.5383 2.36937C12.7527 1.38559 13.2572 0.742342 13.9257 0.742342C14.4806 0.742342 14.8086 1.10811 14.8086 1.52432C14.8086 2.01622 14.5563 2.33153 13.5095 3.21441L11.9834 4.48829V5.48468H15.7167V4.91712H12.387Z" fill="#021215"/>
</svg>
