<svg width="28" height="9" viewBox="0 0 28 9" fill="none" xmlns="http://www.w3.org/2000/svg">
<path d="M5.232 5.4C5.3 5.528 5.362 5.662 5.418 5.802C5.478 5.938 5.536 6.076 5.592 6.216C5.648 6.072 5.706 5.93 5.766 5.79C5.826 5.65 5.89 5.516 5.958 5.388L8.526 0.581999C8.558 0.521999 8.59 0.474 8.622 0.438C8.658 0.401999 8.696 0.375999 8.736 0.36C8.78 0.343999 8.828 0.333999 8.88 0.33C8.932 0.325999 8.994 0.323999 9.066 0.323999H10.284V9H8.862V3.396C8.862 3.292 8.864 3.178 8.868 3.054C8.876 2.93 8.886 2.804 8.898 2.676L6.276 7.596C6.216 7.708 6.138 7.796 6.042 7.86C5.946 7.92 5.834 7.95 5.706 7.95H5.484C5.356 7.95 5.244 7.92 5.148 7.86C5.052 7.796 4.974 7.708 4.914 7.596L2.256 2.658C2.272 2.79 2.282 2.92 2.286 3.048C2.294 3.172 2.298 3.288 2.298 3.396V9H0.876V0.323999H2.094C2.166 0.323999 2.228 0.325999 2.28 0.33C2.332 0.333999 2.378 0.343999 2.418 0.36C2.462 0.375999 2.502 0.401999 2.538 0.438C2.574 0.474 2.608 0.521999 2.64 0.581999L5.232 5.4ZM14.3542 4.536L11.5882 0.323999H13.1962C13.3082 0.323999 13.3882 0.339999 13.4362 0.372C13.4882 0.399999 13.5342 0.447999 13.5742 0.516L15.5482 3.702C15.5682 3.65 15.5902 3.6 15.6142 3.552C15.6382 3.5 15.6662 3.448 15.6982 3.396L17.5042 0.546C17.5923 0.398 17.7063 0.323999 17.8463 0.323999H19.3943L16.5983 4.47L19.4723 9H17.8582C17.7503 9 17.6623 8.972 17.5942 8.916C17.5303 8.86 17.4763 8.796 17.4323 8.724L15.4222 5.4C15.4062 5.448 15.3883 5.494 15.3683 5.538C15.3482 5.578 15.3282 5.616 15.3082 5.652L13.3822 8.724C13.3382 8.792 13.2842 8.856 13.2202 8.916C13.1562 8.972 13.0762 9 12.9802 9H11.4682L14.3542 4.536ZM21.5028 0.323999C21.5748 0.323999 21.6348 0.327999 21.6828 0.335999C21.7308 0.339999 21.7728 0.352 21.8088 0.372C21.8488 0.388 21.8868 0.414 21.9228 0.45C21.9588 0.482 21.9988 0.526 22.0428 0.581999L26.5968 6.384C26.5808 6.244 26.5688 6.108 26.5608 5.976C26.5568 5.84 26.5548 5.714 26.5548 5.598V0.323999H27.9768V9H27.1428C27.0148 9 26.9088 8.98 26.8248 8.94C26.7408 8.9 26.6588 8.828 26.5788 8.724L22.0428 2.946C22.0548 3.074 22.0628 3.202 22.0668 3.33C22.0748 3.454 22.0788 3.568 22.0788 3.672V9H20.6568V0.323999H21.5028Z" fill="#021215"/>
</svg>
