<svg width="29" height="11" viewBox="0 0 29 11" fill="none" xmlns="http://www.w3.org/2000/svg">
<path d="M6.09922 7.94414V5.66126C6.09922 3.95856 4.8758 3.08829 3.3749 3.08829C1.81093 3.08829 0.612735 4.13513 0.209131 5.85045L1.09201 6.06486C1.20553 5.2955 1.81093 3.79459 3.32445 3.78198C4.34607 3.78198 5.05237 4.41261 5.09021 5.52252C1.96228 5.93874 0.322644 7.16216 0.322644 8.47387C0.322644 9.50811 1.04156 10.1387 2.13886 10.1387C3.61454 10.1387 4.52264 9.0036 5.09021 7.51532V8.17117C5.09021 8.71351 5.1785 9.4955 5.31724 10H6.3767C6.18751 9.35676 6.09922 8.8018 6.09922 7.94414ZM2.46679 9.44505C1.71003 9.44505 1.33165 8.97838 1.33165 8.36036C1.33165 7.14955 3.03436 6.43063 5.09021 6.05225C5.02715 7.46486 3.86679 9.44505 2.46679 9.44505ZM10.112 1.00721C10.8435 1.00721 11.2093 2.48288 12.2561 2.48288C13.2399 2.48288 13.6813 1.42342 13.7822 0.565765H12.9498C12.8994 1.36036 12.6471 1.85225 12.1804 1.85225C11.4111 1.85225 11.0453 0.376576 10.0363 0.376576C9.05251 0.376576 8.58584 1.44865 8.47233 2.30631H9.31737C9.38044 1.43604 9.6453 1.00721 10.112 1.00721ZM11.4111 3.08829C10.4021 3.08829 9.59485 3.71892 9.19125 4.94234V3.22703H8.18224V10H9.19125V6.88468C9.19125 4.91712 9.948 3.78198 11.1084 3.78198C12.2687 3.78198 12.7102 4.63964 12.7102 6.34234V10H13.7192V6.19099C13.7192 3.93333 12.748 3.08829 11.4111 3.08829ZM18.3489 10.1387C20.3417 10.1387 21.5399 8.48649 21.5399 6.60721C21.5399 4.72793 20.3417 3.08829 18.3489 3.08829C16.3561 3.08829 15.1579 4.72793 15.1579 6.60721C15.1579 8.48649 16.3561 10.1387 18.3489 10.1387ZM18.3489 9.44505C17.1507 9.44505 16.1669 8.13333 16.1669 6.60721C16.1669 5.09369 17.1507 3.78198 18.3489 3.78198C19.5471 3.78198 20.5309 5.09369 20.5309 6.60721C20.5309 8.13333 19.5471 9.44505 18.3489 9.44505ZM25.972 10.1387C27.3594 10.1387 28.3936 9.28108 28.3936 8.23423C28.3936 6.87207 27.2207 6.43063 25.8459 6.15315C25.127 6.0018 23.8909 5.6991 23.8909 4.87928C23.8909 4.18559 24.4963 3.78198 25.2909 3.78198C26.0099 3.78198 27.0441 4.26126 27.6243 5.62342L28.3936 5.30811C27.8513 4.04685 26.7162 3.08829 25.2531 3.08829C23.8153 3.08829 22.8819 3.8955 22.8819 4.89189C22.8819 5.88829 23.7774 6.45586 25.2026 6.74595C26.3252 6.96036 27.3846 7.28829 27.3846 8.25946C27.3846 8.9027 26.8297 9.44505 25.9342 9.44505C24.7234 9.44505 23.6008 8.41081 23.3108 6.98559L22.5035 7.22523C22.8819 8.91532 24.181 10.1387 25.972 10.1387Z" fill="#021215"/>
</svg>
