<svg width="24" height="24" viewBox="0 0 24 24" fill="none" xmlns="http://www.w3.org/2000/svg">
<path d="M3 6.44434H21" stroke="#1F1FFF" stroke-width="1.5" stroke-linecap="round" stroke-linejoin="round"/>
<path d="M9.75 10.8887V17.5553" stroke="#1F1FFF" stroke-width="1.5" stroke-linecap="round" stroke-linejoin="round"/>
<path d="M14.25 10.8887V17.5553" stroke="#1F1FFF" stroke-width="1.5" stroke-linecap="round" stroke-linejoin="round"/>
<path d="M4.125 6.44434L5.25 19.7777C5.25 20.367 5.48705 20.9323 5.90901 21.349C6.33097 21.7658 6.90326 21.9999 7.5 21.9999H16.5C17.0967 21.9999 17.669 21.7658 18.091 21.349C18.5129 20.9323 18.75 20.367 18.75 19.7777L19.875 6.44434" stroke="#1F1FFF" stroke-width="1.5" stroke-linecap="round" stroke-linejoin="round"/>
<path d="M8.625 6.44444V3.11111C8.625 2.81643 8.74353 2.53381 8.95451 2.32544C9.16548 2.11706 9.45163 2 9.75 2H14.25C14.5484 2 14.8345 2.11706 15.0455 2.32544C15.2565 2.53381 15.375 2.81643 15.375 3.11111V6.44444" stroke="#1F1FFF" stroke-width="1.5" stroke-linecap="round" stroke-linejoin="round"/>
</svg>
