<svg width="34" height="12" viewBox="0 0 34 12" fill="none" xmlns="http://www.w3.org/2000/svg">
<path d="M8.502 11H7.254C7.114 11 6.998 10.966 6.906 10.898C6.818 10.826 6.754 10.738 6.714 10.634L6.066 8.864H2.472L1.824 10.634C1.792 10.726 1.728 10.81 1.632 10.886C1.54 10.962 1.426 11 1.29 11H0.036L3.444 2.324H5.094L8.502 11ZM2.886 7.724H5.652L4.596 4.838C4.548 4.71 4.494 4.56 4.434 4.388C4.378 4.212 4.322 4.022 4.266 3.818C4.21 4.022 4.154 4.212 4.098 4.388C4.046 4.564 3.994 4.718 3.942 4.85L2.886 7.724ZM10.4815 2.324C10.5535 2.324 10.6135 2.328 10.6615 2.336C10.7095 2.34 10.7515 2.352 10.7875 2.372C10.8275 2.388 10.8655 2.414 10.9015 2.45C10.9375 2.482 10.9775 2.526 11.0215 2.582L15.5755 8.384C15.5595 8.244 15.5475 8.108 15.5395 7.976C15.5355 7.84 15.5335 7.714 15.5335 7.598V2.324H16.9555V11H16.1215C15.9935 11 15.8875 10.98 15.8035 10.94C15.7195 10.9 15.6375 10.828 15.5575 10.724L11.0215 4.946C11.0335 5.074 11.0415 5.202 11.0455 5.33C11.0535 5.454 11.0575 5.568 11.0575 5.672V11H9.63553V2.324H10.4815ZM14.1295 0.805999C14.2375 0.805999 14.3235 0.775999 14.3875 0.715999C14.4555 0.651999 14.4915 0.555999 14.4955 0.427999H15.2995C15.2995 0.627999 15.2735 0.809999 15.2215 0.973999C15.1695 1.138 15.0955 1.278 14.9995 1.394C14.9035 1.51 14.7855 1.602 14.6455 1.67C14.5055 1.734 14.3455 1.766 14.1655 1.766C14.0215 1.766 13.8815 1.744 13.7455 1.7C13.6135 1.656 13.4855 1.608 13.3615 1.556C13.2415 1.504 13.1275 1.456 13.0195 1.412C12.9155 1.368 12.8215 1.346 12.7375 1.346C12.6295 1.346 12.5435 1.38 12.4795 1.448C12.4155 1.512 12.3815 1.608 12.3775 1.736H11.5615C11.5615 1.54 11.5875 1.36 11.6395 1.196C11.6915 1.028 11.7675 0.883999 11.8675 0.763999C11.9675 0.644 12.0875 0.552 12.2275 0.487999C12.3675 0.42 12.5255 0.386 12.7015 0.386C12.8455 0.386 12.9855 0.408 13.1215 0.451999C13.2575 0.495999 13.3855 0.543999 13.5055 0.595999C13.6295 0.648 13.7435 0.696 13.8475 0.74C13.9515 0.783999 14.0455 0.805999 14.1295 0.805999ZM27.2678 6.662C27.2678 7.298 27.1618 7.888 26.9498 8.432C26.7378 8.972 26.4398 9.44 26.0558 9.836C25.6718 10.232 25.2098 10.542 24.6698 10.766C24.1298 10.986 23.5318 11.096 22.8758 11.096C22.2198 11.096 21.6198 10.986 21.0758 10.766C20.5358 10.542 20.0718 10.232 19.6838 9.836C19.2998 9.44 19.0018 8.972 18.7898 8.432C18.5778 7.888 18.4718 7.298 18.4718 6.662C18.4718 6.026 18.5778 5.438 18.7898 4.898C19.0018 4.354 19.2998 3.884 19.6838 3.488C20.0718 3.092 20.5358 2.784 21.0758 2.564C21.6198 2.34 22.2198 2.228 22.8758 2.228C23.5318 2.228 24.1298 2.34 24.6698 2.564C25.2098 2.788 25.6718 3.098 26.0558 3.494C26.4398 3.886 26.7378 4.354 26.9498 4.898C27.1618 5.438 27.2678 6.026 27.2678 6.662ZM25.6118 6.662C25.6118 6.186 25.5478 5.76 25.4198 5.384C25.2958 5.004 25.1158 4.682 24.8798 4.418C24.6438 4.154 24.3558 3.952 24.0158 3.812C23.6798 3.672 23.2998 3.602 22.8758 3.602C22.4518 3.602 22.0698 3.672 21.7298 3.812C21.3898 3.952 21.0998 4.154 20.8598 4.418C20.6238 4.682 20.4418 5.004 20.3138 5.384C20.1858 5.76 20.1218 6.186 20.1218 6.662C20.1218 7.138 20.1858 7.566 20.3138 7.946C20.4418 8.322 20.6238 8.642 20.8598 8.906C21.0998 9.166 21.3898 9.366 21.7298 9.506C22.0698 9.646 22.4518 9.716 22.8758 9.716C23.2998 9.716 23.6798 9.646 24.0158 9.506C24.3558 9.366 24.6438 9.166 24.8798 8.906C25.1158 8.642 25.2958 8.322 25.4198 7.946C25.5478 7.566 25.6118 7.138 25.6118 6.662ZM33.4335 3.902C33.3895 3.99 33.3375 4.052 33.2775 4.088C33.2215 4.124 33.1535 4.142 33.0735 4.142C32.9935 4.142 32.9035 4.112 32.8035 4.052C32.7035 3.988 32.5855 3.918 32.4495 3.842C32.3135 3.766 32.1535 3.698 31.9695 3.638C31.7895 3.574 31.5755 3.542 31.3275 3.542C31.1035 3.542 30.9075 3.57 30.7395 3.626C30.5755 3.678 30.4355 3.752 30.3195 3.848C30.2075 3.944 30.1235 4.06 30.0675 4.196C30.0115 4.328 29.9835 4.474 29.9835 4.634C29.9835 4.838 30.0395 5.008 30.1515 5.144C30.2675 5.28 30.4195 5.396 30.6075 5.492C30.7955 5.588 31.0095 5.674 31.2495 5.75C31.4895 5.826 31.7335 5.908 31.9815 5.996C32.2335 6.08 32.4795 6.18 32.7195 6.296C32.9595 6.408 33.1735 6.552 33.3615 6.728C33.5495 6.9 33.6995 7.112 33.8115 7.364C33.9275 7.616 33.9855 7.922 33.9855 8.282C33.9855 8.674 33.9175 9.042 33.7815 9.386C33.6495 9.726 33.4535 10.024 33.1935 10.28C32.9375 10.532 32.6235 10.732 32.2515 10.88C31.8795 11.024 31.4535 11.096 30.9735 11.096C30.6975 11.096 30.4255 11.068 30.1575 11.012C29.8895 10.96 29.6315 10.884 29.3835 10.784C29.1395 10.684 28.9095 10.564 28.6935 10.424C28.4815 10.284 28.2915 10.128 28.1235 9.956L28.5915 9.182C28.6355 9.126 28.6875 9.08 28.7475 9.044C28.8115 9.004 28.8815 8.984 28.9575 8.984C29.0575 8.984 29.1655 9.026 29.2815 9.11C29.3975 9.19 29.5335 9.28 29.6895 9.38C29.8495 9.48 30.0355 9.572 30.2475 9.656C30.4635 9.736 30.7215 9.776 31.0215 9.776C31.4815 9.776 31.8375 9.668 32.0895 9.452C32.3415 9.232 32.4675 8.918 32.4675 8.51C32.4675 8.282 32.4095 8.096 32.2935 7.952C32.1815 7.808 32.0315 7.688 31.8435 7.592C31.6555 7.492 31.4415 7.408 31.2015 7.34C30.9615 7.272 30.7175 7.198 30.4695 7.118C30.2215 7.038 29.9775 6.942 29.7375 6.83C29.4975 6.718 29.2835 6.572 29.0955 6.392C28.9075 6.212 28.7555 5.988 28.6395 5.72C28.5275 5.448 28.4715 5.114 28.4715 4.718C28.4715 4.402 28.5335 4.094 28.6575 3.794C28.7855 3.494 28.9695 3.228 29.2095 2.996C29.4535 2.764 29.7515 2.578 30.1035 2.438C30.4555 2.298 30.8575 2.228 31.3095 2.228C31.8215 2.228 32.2935 2.308 32.7255 2.468C33.1575 2.628 33.5255 2.852 33.8295 3.14L33.4335 3.902Z" fill="#021215"/>
</svg>
