<svg width="48" height="20" viewBox="0 0 48 20" fill="none" xmlns="http://www.w3.org/2000/svg">
<path fill-rule="evenodd" clip-rule="evenodd" d="M16.9307 0C11.6227 0 7.44188 4.4639 7.44188 9.90612C7.44188 15.3234 11.6219 19.8148 16.9307 19.8148C22.2395 19.8148 26.4186 15.3234 26.4186 9.90612C26.4186 4.4639 22.2378 0 16.9307 0ZM16.9307 16.7026C13.9055 16.7026 11.7446 13.8933 11.7446 9.90525C11.7446 5.91717 13.8977 3.10787 16.9307 3.10787C19.9637 3.10787 22.1168 5.91717 22.1168 9.90525C22.1168 13.8933 19.9637 16.7026 16.935 16.7026H16.9307ZM43.527 17.8768L36.6234 0.370369H29.3953V19.6296H33.6822V2.1241L40.5859 19.6296H47.8139V0.370369H43.527V17.8768ZM0 0.370369H4.46511V19.6296H0V0.370369Z" fill="white"/>
</svg>
