<svg width="80" height="219" viewBox="0 0 80 219" fill="none" xmlns="http://www.w3.org/2000/svg">
<mask id="mask0_446_18606" style="mask-type:alpha" maskUnits="userSpaceOnUse" x="0" y="0" width="80" height="219">
<path d="M0 16C0 7.16345 7.16344 0 16 0H64C72.8366 0 80 7.16344 80 16V203C80 211.837 72.8366 219 64 219H16C7.16344 219 0 211.837 0 203V16Z" fill="#14B869"/>
</mask>
<g mask="url(#mask0_446_18606)">
<path fill-rule="evenodd" clip-rule="evenodd" d="M74.4327 229.462C74.4327 229.462 89.8178 247.844 90.4574 248.484C91.097 249.124 91.7711 249.62 93.2078 248.463C94.6446 247.306 95.5556 246.547 95.5556 246.547C95.5556 246.547 96.4088 245.895 95.9176 244.718C95.4265 243.539 94.0899 239.395 94.0899 239.395L99.3666 242.291C99.3666 242.291 100.008 243.146 101.725 241.772C103.442 240.398 110.615 234.388 112.096 233.043C131.951 215.002 99.9723 229.429 99.3063 229.936C99.3063 229.936 88.8691 217.941 88.7129 217.585L74.4327 229.462Z" fill="#021215"/>
<path fill-rule="evenodd" clip-rule="evenodd" d="M94.7037 215.386C95.9448 214.363 96.9618 213.402 96.9618 213.402C96.9618 213.402 98.3909 212.01 96.9697 210.141C96.1913 209.118 31.5534 130.683 31.5534 130.683C31.5528 130.604 31.5517 130.515 31.5501 130.416C31.4586 124.649 26.7651 120.033 21.0383 120.077L-0.151557 120.241C-5.9151 120.285 -10.551 125.026 -10.5053 130.831L-10.5039 131.008C-10.5039 131.008 -100.814 209.623 -101.887 210.643C-103.295 211.979 -101.587 213.558 -101.587 213.558C-101.587 213.558 -77.1401 235.957 -76.2544 236.789C-75.3687 237.621 -74.4881 237.847 -73.2016 236.672L8.42135 160.294L69.6128 233.003C70.5188 234.128 72.1619 234.291 73.2666 233.363C79.0245 228.53 93.6836 216.227 94.7037 215.386Z" fill="#A050C8"/>
<path fill-rule="evenodd" clip-rule="evenodd" d="M-10.457 129.575C-10.457 129.575 13.4481 129.575 16.7516 129.575L17.5581 127.435L-10.0538 127.435L-10.457 129.575Z" fill="#021215"/>
<path fill-rule="evenodd" clip-rule="evenodd" d="M41.7535 87.6075L48.6423 65.7842L62.4656 65.4029C62.4656 65.4029 71.9494 65.0803 72.2923 67.6987C72.7698 71.3437 66.0104 71.1659 61.8249 71.3402C60.2897 71.4036 64.0372 71.2787 64.9884 73.0092C65.8188 74.52 64.6993 77.1479 62.2726 76.9007C62.2726 76.9007 64.7213 77.1734 64.7714 79.3812C64.8132 81.236 62.7741 82.4341 60.9391 82.2329C60.9391 82.2329 62.6715 82.65 62.9791 84.6331C63.3145 86.794 61.8417 89.1095 57.4895 88.7522C57.4895 88.7522 48.5403 88.0729 41.7535 87.6075Z" fill="#BC83D8"/>
<path fill-rule="evenodd" clip-rule="evenodd" d="M18.7054 68.0017L14.8753 96.6862C24.0505 97.5013 24.5353 91.7856 24.5353 91.7856C26.2792 95.3288 31.3143 95.5825 33.8453 94.0477C36.3445 92.5326 36.8156 89.2203 36.8156 89.2203C38.4423 94.5928 48.2232 93.7441 48.6612 87.8255L49.5773 63.3686L18.7054 68.0017Z" fill="#E5CE38"/>
<path fill-rule="evenodd" clip-rule="evenodd" d="M18.8496 141.323C18.8496 141.323 26.8334 153.29 31.7737 159.926C35.3388 164.715 36.9323 164.833 37.9639 164.694C38.9955 164.556 39.9716 162.813 38.7516 160.826C38.7516 160.826 39.9813 164.071 41.6178 164.189C43.2535 164.307 44.3632 163.126 42.8316 159.797C42.8316 159.797 43.9732 162.739 45.822 162.551C47.7078 162.359 47.9554 159.983 47.0391 158.593C47.0391 158.593 48.3975 161.75 50.7132 160.691C53.0849 159.605 50.747 153.964 46.9657 149.09C46.9657 149.09 50.4657 150.972 52.5343 151.347C54.6026 151.721 57.7297 149.918 53.4028 146.827C49.0758 143.736 41.5686 141.147 41.5686 141.147L18.8496 141.323Z" fill="#BC83D8"/>
<path fill-rule="evenodd" clip-rule="evenodd" d="M44.3281 141.126L18.8496 141.323C13.571 135.637 16.4377 128.866 16.9354 127.808L-17.2519 128.073C-17.8096 105.886 -17.0472 92.3144 -17.1801 75.1237C-17.3351 55.0746 0.0418885 55.6094 0.0418885 55.6094L21.0814 55.4467C21.0814 55.4467 38.59 54.2542 40.7903 69.5231L40.7916 69.5226C40.7916 69.5226 42.8793 78.5528 44.3281 141.126Z" fill="#E9D453"/>
<mask id="mask1_446_18606" style="mask-type:alpha" maskUnits="userSpaceOnUse" x="-18" y="55" width="63" height="87">
<path fill-rule="evenodd" clip-rule="evenodd" d="M21.0819 55.4471L0.0429028 55.6097C0.0429028 55.6097 -17.3345 55.0745 -17.1795 75.1236C-17.0467 92.3147 -17.8085 105.885 -17.2509 128.073L16.936 127.808C16.4387 128.866 13.572 135.637 18.8506 141.323L44.3287 141.126C42.8803 78.5531 40.7926 69.5225 40.7926 69.5225L40.7909 69.523C38.8582 56.1096 25.1112 55.4001 21.7988 55.4257C21.3404 55.4293 21.0819 55.4471 21.0819 55.4471Z" fill="white"/>
</mask>
<g mask="url(#mask1_446_18606)">
<path opacity="0.5" fill-rule="evenodd" clip-rule="evenodd" d="M75.1029 57.8208C71.9951 58.9082 68.7828 58.9971 65.526 59.1114C61.9383 59.237 58.3491 59.3262 54.7592 59.3891C47.5772 59.5149 40.3936 59.5357 33.2106 59.5342C18.7072 59.5317 4.19912 59.4366 -10.2988 59.9293C-18.473 60.2072 -26.6396 60.6835 -34.7845 61.4454C-37.5535 61.7047 -37.5448 66.0972 -34.7505 65.8354C-5.54888 63.1015 23.7912 64.2546 53.0702 63.8074C57.0906 63.7461 61.1109 63.6535 65.1294 63.5167C68.8925 63.3879 72.7012 63.3018 76.2932 62.0456C78.9256 61.1244 77.7601 56.8914 75.1029 57.8208Z" fill="#FAF6DB"/>
</g>
<mask id="mask2_446_18606" style="mask-type:alpha" maskUnits="userSpaceOnUse" x="-18" y="55" width="63" height="87">
<path fill-rule="evenodd" clip-rule="evenodd" d="M21.0819 55.4471L0.0429028 55.6097C0.0429028 55.6097 -17.3345 55.0745 -17.1795 75.1236C-17.0467 92.3147 -17.8085 105.885 -17.2509 128.073L16.936 127.808C16.4387 128.866 13.572 135.637 18.8506 141.323L44.3287 141.126C42.8803 78.5531 40.7926 69.5225 40.7926 69.5225L40.7909 69.523C38.8582 56.1096 25.1112 55.4001 21.7988 55.4257C21.3404 55.4293 21.0819 55.4471 21.0819 55.4471Z" fill="white"/>
</mask>
<g mask="url(#mask2_446_18606)">
<path opacity="0.5" fill-rule="evenodd" clip-rule="evenodd" d="M79.4147 74.6621C42.4905 73.7015 5.55378 73.2723 -31.3827 73.3743C-34.1846 73.3819 -34.1541 77.772 -31.3488 77.7644C5.58772 77.6624 42.5244 78.0916 79.4486 79.0522C82.2516 79.1253 82.2142 74.7353 79.4147 74.6621Z" fill="#FAF6DB"/>
</g>
<mask id="mask3_446_18606" style="mask-type:alpha" maskUnits="userSpaceOnUse" x="-18" y="55" width="63" height="87">
<path fill-rule="evenodd" clip-rule="evenodd" d="M21.0819 55.4471L0.0429028 55.6097C0.0429028 55.6097 -17.3345 55.0745 -17.1795 75.1236C-17.0467 92.3147 -17.8085 105.885 -17.2509 128.073L16.936 127.808C16.4387 128.866 13.572 135.637 18.8506 141.323L44.3287 141.126C42.8803 78.5531 40.7926 69.5225 40.7926 69.5225L40.7909 69.523C38.8582 56.1096 25.1112 55.4001 21.7988 55.4257C21.3404 55.4293 21.0819 55.4471 21.0819 55.4471Z" fill="white"/>
</mask>
<g mask="url(#mask3_446_18606)">
<path opacity="0.5" fill-rule="evenodd" clip-rule="evenodd" d="M84.5391 86.7826C53.7992 87.0738 23.0592 87.365 -7.68071 87.6562C-16.3807 87.7384 -25.0806 87.8214 -33.7805 87.9036C-36.5814 87.9296 -36.5527 92.3198 -33.7466 92.2937L58.4728 91.4201C67.1731 91.3375 75.8731 91.2549 84.573 91.1727C87.3739 91.1462 87.3447 86.7561 84.5391 86.7826Z" fill="#FAF6DB"/>
</g>
<mask id="mask4_446_18606" style="mask-type:alpha" maskUnits="userSpaceOnUse" x="-18" y="55" width="63" height="87">
<path fill-rule="evenodd" clip-rule="evenodd" d="M21.0819 55.4471L0.0429028 55.6097C0.0429028 55.6097 -17.3345 55.0745 -17.1795 75.1236C-17.0467 92.3147 -17.8085 105.885 -17.2509 128.073L16.936 127.808C16.4387 128.866 13.572 135.637 18.8506 141.323L44.3287 141.126C42.8803 78.5531 40.7926 69.5225 40.7926 69.5225L40.7909 69.523C38.8582 56.1096 25.1112 55.4001 21.7988 55.4257C21.3404 55.4293 21.0819 55.4471 21.0819 55.4471Z" fill="white"/>
</mask>
<g mask="url(#mask4_446_18606)">
<path opacity="0.5" fill-rule="evenodd" clip-rule="evenodd" d="M70.9226 98.1576C37.2728 98.3962 3.62256 98.6348 -30.0272 98.8739C-32.8286 98.8938 -32.799 103.284 -29.9933 103.264C3.6565 103.025 37.3067 102.786 70.9566 102.548C73.7579 102.528 73.7283 98.1381 70.9226 98.1576Z" fill="#FAF6DB"/>
</g>
<mask id="mask5_446_18606" style="mask-type:alpha" maskUnits="userSpaceOnUse" x="-18" y="55" width="63" height="87">
<path fill-rule="evenodd" clip-rule="evenodd" d="M21.0819 55.4471L0.0429028 55.6097C0.0429028 55.6097 -17.3345 55.0745 -17.1795 75.1236C-17.0467 92.3147 -17.8085 105.885 -17.2509 128.073L16.936 127.808C16.4387 128.866 13.572 135.637 18.8506 141.323L44.3287 141.126C42.8803 78.5531 40.7926 69.5225 40.7926 69.5225L40.7909 69.523C38.8582 56.1096 25.1112 55.4001 21.7988 55.4257C21.3404 55.4293 21.0819 55.4471 21.0819 55.4471Z" fill="white"/>
</mask>
<g mask="url(#mask5_446_18606)">
<path opacity="0.5" fill-rule="evenodd" clip-rule="evenodd" d="M86.8199 107.325C57.827 108.844 28.8072 109.82 -0.222127 110.234C-8.45422 110.351 -16.6871 110.422 -24.9199 110.451C-27.7218 110.462 -27.6913 114.852 -24.886 114.842C4.14578 114.738 33.175 114.088 62.1825 112.879C70.4081 112.535 78.632 112.146 86.8538 111.715C89.6433 111.569 89.6246 107.178 86.8199 107.325Z" fill="#FAF6DB"/>
</g>
<mask id="mask6_446_18606" style="mask-type:alpha" maskUnits="userSpaceOnUse" x="-18" y="55" width="63" height="87">
<path fill-rule="evenodd" clip-rule="evenodd" d="M21.0819 55.4471L0.0429028 55.6097C0.0429028 55.6097 -17.3345 55.0745 -17.1795 75.1236C-17.0467 92.3147 -17.8085 105.885 -17.2509 128.073L16.936 127.808C16.4387 128.866 13.572 135.637 18.8506 141.323L44.3287 141.126C42.8803 78.5531 40.7926 69.5225 40.7926 69.5225L40.7909 69.523C38.8582 56.1096 25.1112 55.4001 21.7988 55.4257C21.3404 55.4293 21.0819 55.4471 21.0819 55.4471Z" fill="white"/>
</mask>
<g mask="url(#mask6_446_18606)">
<path opacity="0.5" fill-rule="evenodd" clip-rule="evenodd" d="M104.119 123.143C68.6086 124.134 33.0756 124.28 -2.44192 123.563C-12.5485 123.358 -22.6535 123.083 -32.7564 122.741C-35.5586 122.647 -35.5195 127.037 -32.7225 127.132C2.78219 128.33 38.3138 128.686 73.8349 128.176C83.9423 128.031 94.0487 127.815 104.153 127.533C106.95 127.455 106.926 123.064 104.119 123.143Z" fill="#FAF6DB"/>
</g>
<mask id="mask7_446_18606" style="mask-type:alpha" maskUnits="userSpaceOnUse" x="-18" y="55" width="63" height="87">
<path fill-rule="evenodd" clip-rule="evenodd" d="M21.0819 55.4471L0.0429028 55.6097C0.0429028 55.6097 -17.3345 55.0745 -17.1795 75.1236C-17.0467 92.3147 -17.8085 105.885 -17.2509 128.073L16.936 127.808C16.4387 128.866 13.572 135.637 18.8506 141.323L44.3287 141.126C42.8803 78.5531 40.7926 69.5225 40.7926 69.5225L40.7909 69.523C38.8582 56.1096 25.1112 55.4001 21.7988 55.4257C21.3404 55.4293 21.0819 55.4471 21.0819 55.4471Z" fill="#E9D453"/>
</mask>
<g mask="url(#mask7_446_18606)">
<path opacity="0.5" fill-rule="evenodd" clip-rule="evenodd" d="M94.2052 138.007C61.0673 137.674 27.9272 137.61 -5.21181 137.815C-8.01319 137.832 -7.98361 142.222 -5.17788 142.205C27.9611 142 61.1013 142.064 94.2392 142.397C97.0418 142.425 97.0083 138.035 94.2052 138.007Z" fill="#FAF6DB"/>
</g>
<path fill-rule="evenodd" clip-rule="evenodd" d="M39.0682 164.451C38.999 164.452 38.9288 164.441 38.8594 164.418C38.5168 164.305 38.3302 163.933 38.4424 163.587C38.9629 161.987 36.3468 157.812 34.4369 154.763C33.9048 153.913 33.4023 153.112 32.9801 152.393C32.7962 152.08 32.8993 151.676 33.2091 151.491C33.5198 151.305 33.9203 151.409 34.1038 151.722C34.5163 152.424 35.014 153.219 35.5411 154.06C37.8165 157.691 40.3956 161.808 39.6837 163.998C39.594 164.273 39.3407 164.449 39.0682 164.451Z" fill="#021215"/>
<path fill-rule="evenodd" clip-rule="evenodd" d="M43.4785 163.771C43.4167 163.771 43.3535 163.762 43.2911 163.744C42.9447 163.643 42.7455 163.277 42.8464 162.928C43.4404 160.866 40.1807 155.428 38.6141 152.814C38.323 152.329 38.0694 151.905 37.8761 151.567C37.6956 151.253 37.8022 150.85 38.1147 150.668C38.4272 150.487 38.8263 150.594 39.0068 150.909C39.1966 151.241 39.4458 151.656 39.732 152.133C42.2102 156.268 44.7962 160.881 44.1005 163.296C44.0178 163.582 43.7598 163.768 43.4785 163.771Z" fill="#021215"/>
<path fill-rule="evenodd" clip-rule="evenodd" d="M47.3282 162.149C47.2782 162.149 47.2276 162.143 47.177 162.132C46.8255 162.051 46.6055 161.698 46.6859 161.343C47.248 158.863 44.8129 154.79 43.3574 152.356C43.0416 151.828 42.769 151.371 42.5655 150.999C42.3919 150.68 42.5068 150.28 42.8228 150.104C43.1392 149.929 43.5359 150.045 43.7099 150.364C43.9007 150.714 44.1675 151.16 44.4758 151.676C46.1337 154.448 48.6385 158.638 47.959 161.637C47.8904 161.94 47.6238 162.146 47.3282 162.149Z" fill="#021215"/>
<path fill-rule="evenodd" clip-rule="evenodd" d="M55.3428 71.5309C55.0562 71.4293 54.8706 71.1359 54.9134 70.8206C54.9626 70.4601 55.292 70.2078 55.649 70.2571C55.7319 70.2683 63.9978 71.3725 70.7727 69.4682C71.1207 69.3715 71.4808 69.5759 71.5769 69.926C71.6739 70.276 71.4704 70.6395 71.1231 70.7369C64.0826 72.716 55.8199 71.6102 55.4717 71.5622C55.4269 71.5556 55.3839 71.5455 55.3428 71.5309Z" fill="#021215"/>
<path fill-rule="evenodd" clip-rule="evenodd" d="M53.005 79.4375L52.9931 79.4333C49.7564 78.2686 49.4168 73.1317 49.4039 72.9135C49.3825 72.5504 49.6569 72.239 50.0166 72.2171C50.3775 72.1947 50.6856 72.4715 50.7076 72.834C50.7104 72.8787 51.008 77.3207 53.4321 78.1927C53.8112 78.315 54.1141 78.2776 54.3939 78.0193C55.3175 77.166 55.7701 74.336 54.9286 71.0757C54.8374 70.7236 55.0469 70.364 55.3959 70.2723C55.745 70.1806 56.1018 70.3918 56.1922 70.7436C57.1006 74.2618 56.7238 77.653 55.2758 78.9906C54.6435 79.574 53.8377 79.7328 53.005 79.4375Z" fill="#021215"/>
<path fill-rule="evenodd" clip-rule="evenodd" d="M55.729 76.6679C55.421 76.5587 55.2357 76.2313 55.3098 75.9014C55.3897 75.547 55.7395 75.3236 56.0908 75.404C56.1395 75.4152 60.9682 76.4985 63.8209 75.8923C64.1741 75.8178 64.5202 76.0452 64.5944 76.4012C64.6681 76.757 64.4424 77.1063 64.0894 77.1814C60.9565 77.8475 56.0113 76.7368 55.8024 76.6888C55.7772 76.6831 55.7528 76.6763 55.729 76.6679Z" fill="#021215"/>
<path fill-rule="evenodd" clip-rule="evenodd" d="M55.5348 81.933C55.3459 81.8661 55.1561 81.7937 54.9653 81.7162C53.0174 80.9218 52.9601 79.4823 53.2019 78.8319C53.3287 78.4912 53.7037 78.3197 54.0428 78.4455C54.3804 78.5731 54.5514 78.9532 54.4247 79.2938C54.3946 79.3958 54.2734 80.0126 55.4559 80.4947C59.5032 82.1522 63.2727 80.9924 63.3101 80.9805C63.6542 80.8724 64.0201 81.0655 64.1281 81.412C64.236 81.7585 64.0453 82.1277 63.7015 82.2372C63.5379 82.2896 59.7994 83.445 55.5348 81.933Z" fill="#021215"/>
<path fill-rule="evenodd" clip-rule="evenodd" d="M54.9151 86.4223C53.4812 85.914 52.2106 85.0474 52.1461 83.5719C52.0443 81.2421 54.0832 80.5091 55.175 80.4471C55.5346 80.4256 55.8435 80.7041 55.8635 81.0672C55.8837 81.4295 55.6098 81.7396 55.2514 81.7615C55.0596 81.7745 53.3816 81.9322 53.4508 83.5132C53.5106 84.8767 56.1298 85.5865 58.3537 85.7806C58.7122 85.8123 58.9788 86.1312 58.9475 86.4933C58.9164 86.856 58.5995 87.124 58.2404 87.0925C57.4244 87.0215 56.113 86.847 54.9151 86.4223Z" fill="#021215"/>
<path fill-rule="evenodd" clip-rule="evenodd" d="M12.6946 120.614C12.665 120.614 12.635 120.612 12.6049 120.608C12.2475 120.562 11.9947 120.231 12.0411 119.871C12.0772 119.59 12.1699 119.356 12.2519 119.15C12.2976 119.035 12.3407 118.927 12.3601 118.841L12.3895 118.708C12.4581 118.398 12.5224 118.106 12.6215 117.807C12.7117 117.534 12.8296 117.299 12.9334 117.092C12.9771 117.005 13.0204 116.918 13.0607 116.831C13.1125 116.717 13.1525 116.601 13.1917 116.488C13.2628 116.285 13.3433 116.055 13.4761 115.835C13.6348 115.572 13.8402 115.392 14.0049 115.247C14.0901 115.173 14.1705 115.102 14.2154 115.045C14.28 114.962 14.3375 114.851 14.3989 114.734C14.4988 114.541 14.6125 114.323 14.8026 114.133C15.1045 113.831 15.3696 113.594 15.612 113.408C15.7141 113.33 15.8111 113.27 15.8996 113.224C15.8265 113.166 15.7436 113.094 15.6528 113.003C15.6199 112.971 15.5088 112.907 15.4275 112.861C15.2058 112.735 14.9299 112.577 14.7035 112.296C14.5105 112.055 14.4318 111.785 14.3629 111.547C14.3222 111.408 14.2842 111.276 14.2348 111.198C14.1736 111.101 14.1028 111.009 14.0319 110.916C13.8863 110.723 13.721 110.504 13.59 110.23C13.555 110.157 13.4781 110.06 13.3967 109.956C13.2459 109.764 13.0582 109.526 12.9543 109.214C12.8643 108.943 12.8382 108.667 12.815 108.424C12.8022 108.293 12.7908 108.161 12.7654 108.031C12.7105 107.749 12.7215 107.479 12.731 107.24C12.7365 107.111 12.7429 106.98 12.7345 106.848C12.7122 106.502 12.7174 106.163 12.7521 105.749C12.7565 105.693 12.7267 105.564 12.7029 105.461C12.6475 105.222 12.5781 104.926 12.6536 104.601C12.7269 104.285 12.9004 104.044 13.0396 103.85C13.1029 103.762 13.1748 103.662 13.1961 103.606C13.2307 103.514 13.2541 103.393 13.2788 103.265C13.3219 103.041 13.3709 102.787 13.5018 102.538C13.5601 102.427 13.6049 102.307 13.6502 102.19C13.7308 101.981 13.8217 101.745 13.9668 101.53C14.1648 101.236 14.4544 101.077 14.6655 100.961C14.7344 100.923 14.8385 100.867 14.8674 100.839C15.0542 100.613 15.2482 100.431 15.4194 100.271C15.4855 100.208 15.5495 100.149 15.6087 100.09C15.6489 100.049 15.6873 100.013 15.7237 99.9802C15.6187 99.9248 15.5085 99.8497 15.3958 99.747C15.1594 99.5315 14.8823 99.2689 14.6138 98.9522C14.4508 98.7603 14.3347 98.5465 14.2221 98.3397C14.162 98.2283 14.1002 98.1137 14.0288 98.0045C13.8878 97.7896 13.7964 97.5655 13.7085 97.3489C13.6628 97.2368 13.6166 97.1217 13.5609 97.0089C13.514 96.9153 13.4589 96.8231 13.4033 96.7287C13.2851 96.5298 13.1515 96.3043 13.0553 96.0342C12.9574 95.7605 12.9584 95.4883 12.9593 95.2701C12.9596 95.1402 12.96 95.0181 12.9406 94.934C12.8663 94.6193 12.8103 94.2935 12.7583 93.8773C12.7267 93.622 12.7283 93.381 12.7296 93.147C12.7305 93.0372 12.7313 92.9257 12.7283 92.8102C12.7266 92.7567 12.6592 92.6097 12.6141 92.5126C12.5029 92.2711 12.3648 91.971 12.3977 91.6138C12.4331 91.2272 12.6375 90.9292 12.7874 90.7121C12.8377 90.6388 12.9144 90.5276 12.928 90.4849C13.0173 90.1022 13.1317 89.7448 13.2868 89.3643C13.3363 89.2428 13.3728 89.1204 13.4085 89.0025C13.4811 88.7657 13.5626 88.4969 13.7209 88.2436C13.7841 88.1417 13.8392 88.0157 13.8979 87.8822C13.9997 87.6492 14.1152 87.3853 14.3172 87.1612C14.5926 86.8557 14.9412 86.7344 15.1961 86.6464C15.2699 86.6204 15.3806 86.5818 15.4136 86.5605C15.5339 86.4673 15.6304 86.4007 15.7067 86.3496C15.6319 86.3037 15.5496 86.2472 15.4598 86.1764C15.4313 86.1568 15.3231 86.1164 15.2514 86.0889C15.0323 86.0058 14.7318 85.8914 14.4779 85.6457C14.2283 85.404 13.9684 85.1241 13.7254 84.8354C13.6573 84.7542 13.5801 84.674 13.5019 84.5921C13.3378 84.42 13.1517 84.2247 12.9936 83.9893C12.8368 83.7552 12.7608 83.5038 12.6938 83.2817C12.6545 83.1507 12.6174 83.0276 12.5723 82.9397C12.4401 82.6817 12.399 82.4239 12.3624 82.1963C12.3422 82.0678 12.323 81.9468 12.2905 81.8579C12.2594 81.7734 12.2051 81.6729 12.1477 81.5662C12.0421 81.3717 11.9114 81.1299 11.846 80.8384C11.8221 80.7324 11.7834 80.6264 11.7451 80.5187C11.6664 80.2959 11.5773 80.0432 11.5498 79.7502C11.5152 79.3777 11.5031 78.9989 11.5141 78.6247C11.5232 78.331 11.6192 78.0839 11.7042 77.8664C11.7524 77.7435 11.7981 77.6268 11.8105 77.5402C11.8621 77.1803 12.1946 76.931 12.5502 76.9826C12.9072 77.0348 13.1549 77.3692 13.1032 77.7287C13.0689 77.9673 12.9895 78.1704 12.9195 78.3496C12.8738 78.4672 12.8217 78.6001 12.8196 78.6638C12.8103 78.98 12.8207 79.3131 12.8501 79.6268C12.8625 79.7562 12.9172 79.9126 12.9755 80.0776C13.0316 80.2357 13.0846 80.3925 13.1198 80.5476C13.145 80.6607 13.2139 80.7879 13.2939 80.9352C13.3681 81.0725 13.452 81.2282 13.5165 81.4042C13.5921 81.6126 13.6241 81.8116 13.652 81.987C13.674 82.1238 13.696 82.2646 13.7322 82.335C13.8321 82.5292 13.8911 82.7254 13.9434 82.898C13.9854 83.0381 14.0287 83.1822 14.0754 83.2517C14.1705 83.3936 14.3031 83.5318 14.4426 83.6787C14.5405 83.7815 14.6358 83.8818 14.7215 83.9834C14.9359 84.2386 15.1642 84.4844 15.3822 84.6952C15.4427 84.754 15.5798 84.8061 15.7121 84.8564C15.8872 84.9231 16.0863 84.9984 16.265 85.1397C16.3776 85.2289 16.4527 85.2625 16.5248 85.2949C17.1037 85.5565 17.1171 85.9901 17.0459 86.4196C16.9606 86.9318 16.8934 87.1364 16.4724 87.4176C16.4075 87.4611 16.3209 87.5193 16.2031 87.6098C16.0149 87.7548 15.8056 87.8275 15.6211 87.8918C15.4865 87.938 15.3345 87.991 15.284 88.0467C15.224 88.1135 15.1573 88.2659 15.0927 88.4139C15.0217 88.5765 14.9408 88.7606 14.8264 88.9441C14.7606 89.0509 14.7122 89.2075 14.657 89.3897C14.6095 89.5451 14.5598 89.7048 14.4948 89.8647C14.3645 90.184 14.2735 90.4696 14.1981 90.7912C14.134 91.0652 13.9825 91.2859 13.8602 91.4629C13.803 91.5463 13.707 91.6858 13.6978 91.7372C13.7049 91.7534 13.7611 91.8763 13.7988 91.9581C13.8997 92.1769 14.025 92.449 14.0336 92.7742C14.0372 92.9046 14.0365 93.0315 14.0357 93.1562C14.0343 93.3643 14.033 93.5439 14.0544 93.7127C14.1003 94.0803 14.1487 94.3635 14.2112 94.6313C14.2666 94.8671 14.2657 95.0932 14.2654 95.2749C14.265 95.39 14.2644 95.5331 14.2839 95.5883C14.3373 95.738 14.4282 95.8914 14.5244 96.0536C14.5972 96.1764 14.6682 96.2974 14.7288 96.4199C14.7995 96.562 14.859 96.7073 14.9167 96.8496C14.9841 97.0146 15.0476 97.1708 15.1181 97.2783C15.2097 97.418 15.2901 97.5641 15.3674 97.7066C15.4517 97.8614 15.5312 98.0078 15.6063 98.0964C15.8269 98.3563 16.0664 98.5828 16.2716 98.7704C16.3277 98.8213 16.3329 98.8217 16.4187 98.8307C17.0745 98.9003 17.2335 99.3706 17.2513 99.7533C17.2758 100.277 17.1569 100.545 16.7806 100.814C16.7092 100.865 16.6347 100.918 16.5293 101.024C16.4602 101.093 16.3858 101.163 16.3085 101.236C16.1589 101.376 16.0042 101.52 15.8644 101.69C15.6928 101.898 15.4686 102.02 15.2887 102.119C15.2042 102.165 15.0767 102.235 15.0457 102.272C14.9854 102.362 14.9282 102.511 14.8672 102.668C14.8091 102.818 14.7438 102.988 14.6559 103.155C14.616 103.231 14.5892 103.37 14.5607 103.516C14.5281 103.687 14.4908 103.879 14.4162 104.076C14.3334 104.294 14.2076 104.469 14.0969 104.623C14.0267 104.721 13.9388 104.843 13.9254 104.902C13.9226 104.939 13.9537 105.072 13.9744 105.16C14.0194 105.354 14.0753 105.595 14.0534 105.86C14.0247 106.206 14.0195 106.485 14.0377 106.763C14.0491 106.942 14.0431 107.119 14.0362 107.294C14.0289 107.476 14.0219 107.648 14.0468 107.776C14.0804 107.948 14.0983 108.125 14.1149 108.299C14.1329 108.488 14.1499 108.667 14.1923 108.794C14.2235 108.888 14.3189 109.009 14.42 109.138C14.5365 109.286 14.668 109.453 14.7662 109.657C14.8397 109.812 14.9519 109.96 15.0706 110.117C15.1639 110.24 15.2549 110.362 15.3356 110.489C15.485 110.725 15.5579 110.976 15.616 111.177C15.6451 111.276 15.6889 111.427 15.7184 111.467C15.7887 111.554 15.9256 111.632 16.0703 111.714C16.2313 111.807 16.4141 111.91 16.5698 112.066C16.6891 112.185 16.7723 112.24 16.8524 112.293C17.2454 112.557 17.3763 112.827 17.3704 113.361C17.3647 113.91 17.1324 114.224 16.6397 114.347C16.5558 114.368 16.5006 114.382 16.4015 114.457C16.205 114.608 15.9828 114.808 15.7214 115.069C15.6752 115.115 15.6143 115.232 15.5555 115.346C15.4736 115.502 15.3809 115.681 15.2417 115.859C15.1206 116.014 14.9835 116.135 14.8624 116.241C14.7456 116.344 14.6449 116.432 14.5916 116.52C14.5297 116.623 14.4803 116.764 14.4236 116.926C14.3708 117.077 14.3163 117.23 14.2469 117.382C14.2003 117.484 14.1497 117.585 14.0991 117.686C14.0069 117.87 13.9203 118.043 13.8599 118.224C13.7829 118.458 13.7253 118.719 13.6643 118.995L13.6344 119.13C13.5919 119.32 13.524 119.49 13.4642 119.641C13.4057 119.787 13.351 119.925 13.3362 120.04C13.2939 120.37 13.0159 120.611 12.6946 120.614Z" fill="#021215"/>
<path fill-rule="evenodd" clip-rule="evenodd" d="M15.2346 42.7053L10.2723 42.7437C8.02864 42.761 6.13182 44.3975 5.75016 46.6136C5.74602 46.6413 5.74231 46.6676 5.73817 46.6958L5.73611 46.7103L5.73611 46.7107C5.72084 46.8184 5.70514 46.9283 5.68944 47.0377C5.14186 50.8796 4.46514 55.5873 4.46514 55.5873L19.8902 55.4681L19.8952 52.0589L19.9017 47.3823C19.9051 44.7862 17.8087 42.6854 15.2346 42.7053Z" fill="#BC83D8"/>
<path fill-rule="evenodd" clip-rule="evenodd" d="M19.8905 55.4699C13.847 55.0879 12.1866 53.794 12.2365 52.7056C12.2808 51.7311 13.1895 51.8598 13.5861 51.8659C15.3338 51.8915 19.8955 52.0587 19.8955 52.0587" fill="#021215"/>
<path fill-rule="evenodd" clip-rule="evenodd" d="M26.3797 38.4221C25.6985 37.0892 23.7116 37.3816 23.1341 37.4721C22.5427 35.026 21.9089 32.8379 21.3405 31.786C20.1462 29.5746 16.538 27.2695 10.8034 28.2099C6.99579 28.8342 2.96363 32.4518 5.64868 38.6746C5.64868 38.6746 6.4148 40.182 6.07277 42.6806C6.03528 42.9557 5.98166 43.3403 5.91728 43.7978L5.91687 43.8013C5.80835 44.5744 5.66756 45.5664 5.51354 46.6494C5.5094 46.6771 5.50569 46.7034 5.50155 46.7316L5.49949 46.7465C5.48422 46.8542 5.46852 46.9641 5.45282 47.0735C5.36192 48.2113 5.69803 51.9296 14.0036 51.9079L19.6581 52.0947L19.7443 52.0976C19.7443 52.0976 21.6387 52.0618 22.7849 52.053C25.1684 52.0346 25.5599 49.7407 25.279 48.0464C25.1639 47.3501 24.7437 44.9707 24.1799 42.2074C26.834 41.3294 26.922 39.4826 26.3797 38.4221Z" fill="#BC83D8"/>
<path fill-rule="evenodd" clip-rule="evenodd" d="M6.95156 27.4061C2.41509 29.7623 2.47216 34.9491 2.81735 38.2093C3.54109 45.0483 1.50554 48.618 4.457 49.5992C7.05732 50.4366 9.14467 48.274 10.6416 45.936C10.9815 45.4056 11.1474 44.8569 11.2203 44.3681C11.3391 43.5743 10.7702 42.8613 9.98182 42.7489C8.99726 42.6081 7.75828 42.1062 7.74564 40.4713C7.72474 37.767 10.3066 37.9648 10.3066 37.9648C10.3066 37.9648 11.7137 38.0251 12.8309 36.853C13.4951 36.1559 14.346 35.6717 15.2875 35.4892C17.3024 35.0974 20.5767 34.3121 22.3157 33.0905C23.364 32.3544 24.8972 29.4204 22.3197 26.861C19.1631 23.7265 11.0683 25.2686 6.95156 27.4061Z" fill="#FF5A31"/>
<path fill-rule="evenodd" clip-rule="evenodd" d="M17.2808 46.7144C20.0357 48.5106 23.1271 47.7756 23.2744 47.7389C23.6246 47.6518 23.8387 47.2948 23.7524 46.9419C23.6661 46.5881 23.3131 46.3726 22.9633 46.4592C22.905 46.4732 19.5218 47.2513 17.1026 44.8968C16.843 44.6459 16.4294 44.6521 16.1789 44.9136C15.9289 45.176 15.9365 45.5928 16.1961 45.8456C16.5462 46.1859 16.9106 46.473 17.2808 46.7144Z" fill="#021215"/>
<path d="M59.5201 55.829L59.4463 66.3934L65.5652 66.4132L65.5702 65.1879L60.6552 65.1552L60.7254 55.4569C60.3323 55.6077 59.9296 55.7321 59.5201 55.829ZM51.5417 54.729L51.4635 66.3676L57.589 66.3874L57.5941 65.1621L52.6791 65.1294L52.7466 55.2633C52.3338 55.1075 51.9411 54.9048 51.5417 54.729Z" fill="#021215"/>
<path d="M44.5764 42.1261C47.6602 41.4648 47.798 40.3877 48.3445 38.0464C49.3933 33.5853 53.466 31.6483 57.2308 33.2012C60.7526 34.656 59.6075 39.8285 62.8086 39.0299C66.2866 38.165 69.1477 38.1139 70.1549 41.3061C70.9943 43.9338 69.9828 46.6327 73.1633 46.7471C77.2974 46.8914 77.3206 54.9846 70.0533 53.7526C62.193 52.4214 63.3412 56.1511 56.4291 56.1287C52.5345 56.1161 50.037 52.8855 46.7316 53.949C41.3226 55.687 38.8405 51.1574 38.6529 48.9514C38.4301 46.3995 39.4902 43.2241 44.5764 42.1261Z" fill="#FCFCFC"/>
<path d="M57.8601 52.2303C59.9241 52.2369 60.817 49.9965 60.9988 48.7747L59.8125 48.5861C59.7289 49.0545 59.5741 49.5071 59.3535 49.928C58.9435 50.689 58.4186 51.0332 57.7352 50.9839C57.5508 50.9818 57.3689 50.94 57.2019 50.8613C57.0349 50.7825 56.8865 50.6687 56.7668 50.5274C56.2427 49.8776 56.3541 48.7429 56.3541 48.7328L55.1643 48.5946C55.164 48.6584 54.9907 50.253 55.8466 51.3137C56.066 51.5848 56.3404 51.8055 56.6514 51.9612C56.9624 52.1168 57.3029 52.2037 57.6501 52.2162C57.7197 52.2258 57.7899 52.2305 57.8601 52.2303Z" fill="#021215"/>
</g>
</svg>
