<svg width="16" height="16" viewBox="0 0 16 16" fill="none" xmlns="http://www.w3.org/2000/svg">
<g clip-path="url(#clip0_543_20521)">
<path d="M5.33333 2H2.66667C2.29848 2 2 2.29848 2 2.66667V5.33333C2 5.70152 2.29848 6 2.66667 6H5.33333C5.70152 6 6 5.70152 6 5.33333V2.66667C6 2.29848 5.70152 2 5.33333 2Z" stroke="#F8DDE3" stroke-linecap="round" stroke-linejoin="round"/>
<path d="M13.3333 10H10.6667C10.2985 10 10 10.2985 10 10.6667V13.3333C10 13.7015 10.2985 14 10.6667 14H13.3333C13.7015 14 14 13.7015 14 13.3333V10.6667C14 10.2985 13.7015 10 13.3333 10Z" stroke="#F8DDE3" stroke-linecap="round" stroke-linejoin="round"/>
<path d="M14.0003 7.33333V5.33333C14.0003 4.97971 13.8598 4.64057 13.6098 4.39052C13.3598 4.14048 13.0206 4 12.667 4H8.66699L10.667 6M10.667 2L8.66699 4" stroke="#F8DDE3" stroke-linecap="round" stroke-linejoin="round"/>
<path d="M2 8.66663V10.6666C2 11.0202 2.14048 11.3594 2.39052 11.6094C2.64057 11.8595 2.97971 12 3.33333 12H7.33333L5.33333 9.99996M5.33333 14L7.33333 12" stroke="#F8DDE3" stroke-linecap="round" stroke-linejoin="round"/>
</g>
<defs>
<clipPath id="clip0_543_20521">
<rect width="16" height="16" fill="white"/>
</clipPath>
</defs>
</svg>
