<svg width="70" height="40" viewBox="0 0 70 40" fill="none" xmlns="http://www.w3.org/2000/svg">
<path d="M11.2185 15.8468C16.9004 14.718 17.1484 12.9244 18.1403 9.0136C20.0362 1.5558 27.5446 -1.70466 34.5026 0.871045C41.0131 3.28058 38.9448 11.9274 44.8414 10.5808C51.2581 9.11388 56.5137 9.0136 58.4188 14.3398C59.9912 18.7262 58.1436 23.2444 64.016 23.4135C71.6453 23.6341 71.7482 37.1487 58.328 35.1316C43.8072 32.9485 45.9602 39.1685 33.1993 39.1685C26.0115 39.1685 21.3789 33.7851 15.2857 35.5815C5.30979 38.5182 0.701352 30.9658 0.329411 27.2842C-0.0969606 23.0152 1.83532 17.7091 11.2185 15.8468Z" fill="white"/>
</svg>
