<svg width="16" height="16" viewBox="0 0 16 16" fill="none" xmlns="http://www.w3.org/2000/svg">
<g clip-path="url(#clip0_596_23570)">
<path d="M11.3337 5.33329V3.33329C11.3337 3.15648 11.2634 2.98691 11.1384 2.86189C11.0134 2.73686 10.8438 2.66663 10.667 2.66663H4.00033C3.6467 2.66663 3.30756 2.8071 3.05752 3.05715C2.80747 3.3072 2.66699 3.64634 2.66699 3.99996C2.66699 4.35358 2.80747 4.69272 3.05752 4.94277C3.30756 5.19282 3.6467 5.33329 4.00033 5.33329H12.0003C12.1771 5.33329 12.3467 5.40353 12.4717 5.52856C12.5968 5.65358 12.667 5.82315 12.667 5.99996V7.99996M12.667 10.6666V12.6666C12.667 12.8434 12.5968 13.013 12.4717 13.138C12.3467 13.2631 12.1771 13.3333 12.0003 13.3333H4.00033C3.6467 13.3333 3.30756 13.1928 3.05752 12.9428C2.80747 12.6927 2.66699 12.3536 2.66699 12V3.99996" stroke="white" stroke-linecap="round" stroke-linejoin="round"/>
<path d="M13.333 8V10.6667H10.6663C10.3127 10.6667 9.97358 10.5262 9.72353 10.2761C9.47348 10.0261 9.33301 9.68696 9.33301 9.33333C9.33301 8.97971 9.47348 8.64057 9.72353 8.39052C9.97358 8.14048 10.3127 8 10.6663 8H13.333Z" stroke="white" stroke-linecap="round" stroke-linejoin="round"/>
</g>
<defs>
<clipPath id="clip0_596_23570">
<rect width="16" height="16" fill="white"/>
</clipPath>
</defs>
</svg>
